<?xml version="1.0" encoding="utf-8"?>
<!-- Generator: Adobe Illustrator 19.0.0, SVG Export Plug-In . SVG Version: 6.00 Build 0)  -->
<svg version="1.1" id="Layer_1" xmlns="http://www.w3.org/2000/svg" xmlns:xlink="http://www.w3.org/1999/xlink" x="0px" y="0px"
	 viewBox="-329 144.2 300.7 273.8" style="enable-background:new -329 144.2 300.7 273.8;" xml:space="preserve">
<style type="text/css">
	.st0{fill:#FFFFFF;stroke:#FFFFFF;stroke-miterlimit:10;}
</style>
<g id="XMLID_123_">
	<g id="XMLID_89_">
		<path id="XMLID_93_" class="st0" d="M-193.3,330.1c26.1,20.4,71.9,19.2,87-14c-0.6,0.2-1.1,0.5-1.7,0.7
			c10.8,3.5,24.3,0.9,34.8-2.5c10.8-3.5,19.9-9.8,26.1-19.5c10.2-16,5-42.6-12-52.1c-1.7-0.9-3.2,1.7-1.5,2.6
			c7.9,4.4,12.3,12.3,14.3,20.8c2.5,10.2,1.9,19.8-4.3,28.5c-6.1,8.7-14.8,14.2-24.9,17.2c-9.8,2.9-21.7,5.2-31.7,2
			c-0.6-0.2-1.4,0.1-1.7,0.7c-14.1,31.3-57.5,32.7-82.2,13.4C-192.7,326.8-194.8,328.9-193.3,330.1L-193.3,330.1z"/>
	</g>
</g>
<g id="XMLID_121_">
	<g id="XMLID_83_">
		<path id="XMLID_87_" class="st0" d="M-281.5,293c-1.5,9.7,2.5,18.4,8.4,25.9c6.2,7.9,12.2,14,21.4,18c18.4,7.8,42.3,6.3,58.4-5.9
			c1.5-1.2,0-3.8-1.5-2.6c-7.6,5.7-16.5,9.2-26,9.9c-8.8,0.6-18.5,0.1-26.8-2.9c-3.7-1.4-7.9-3-11.1-5.3c-3.4-2.4-6.1-5.9-8.8-9
			c-6.6-7.6-12.7-16.6-11.1-27.2C-278.3,291.9-281.2,291.1-281.5,293L-281.5,293z"/>
	</g>
</g>
<g id="XMLID_120_">
	<g id="XMLID_77_">
		<path id="XMLID_81_" class="st0" d="M-90.6,387.1c-6.2,4.2-10.5,11.2-3.7,17.4c5.3,4.9,15.2,6,20.8,1.3c5.9-5,5.3-13.8-0.9-18.7
			c-4.8-3.7-15.1-3.4-18.6,1.9c-1.1,1.6,1.5,3.1,2.6,1.5c2.2-3.5,10-3.4,13.3-1.6c1.8,1,3.2,3.3,3.9,5.2c1.7,4.4,0.7,7.2-2.8,9.7
			c-3.9,2.8-9.9,2.1-14-0.1c-2.9-1.6-5.1-4.6-4.7-8.1c0.3-2.7,3.7-4.7,5.6-6C-87.5,388.6-89,386-90.6,387.1L-90.6,387.1z"/>
	</g>
</g>
<g id="XMLID_114_">
	<g id="XMLID_71_">
		<path id="XMLID_75_" class="st0" d="M-57.4,243.8c4.4-15.1,7.9-32.4-4-45c-11.6-12.3-29.4-14-45.3-15c0.5,0.5,1,1,1.5,1.5
			c-1.3-13.5-16.3-23.2-27.7-27.9c-13.6-5.6-28.9-6-42.8-1c-6.3,2.3-12.3,5.6-17.6,9.7c-2.4,1.9-5.3,6.2-8.4,5.5
			c-4.3-1-8.5-3.1-12.8-4.3c-15.6-4.1-31.2-2.8-44.4,6.9c-11.4,8.4-26.4,23.6-21,39.2c0.5-0.6,1-1.3,1.4-1.9
			c-20,2.7-40.5,15-42.9,37c-2.7,24.3,22.8,38.9,43.4,43.3c1.9,0.4,2.7-2.5,0.8-2.9c-18.7-3.9-42.8-16.7-41.3-38.9
			c1.5-21,21.3-32.9,40.3-35.3c0.9-0.1,1.8-0.9,1.4-1.9c-5.6-16,13.3-33,25.8-39.8c16.4-8.9,34.9-4,51.1,2.6c0.5,0.2,1.1,0,1.5-0.4
			c11.8-12.8,28.8-20.2,46.3-19.2c8.8,0.5,17.5,3.2,25.2,7.6c7.8,4.5,17.9,12,18.8,21.7c0.1,0.8,0.6,1.4,1.5,1.5
			c14.7,0.9,31,2.2,42.1,13c12.2,11.8,8.5,28.7,4.3,43.2C-60.8,244.9-57.9,245.7-57.4,243.8L-57.4,243.8z"/>
	</g>
</g>
<g id="XMLID_110_">
	<g id="XMLID_65_">
		<path id="XMLID_69_" class="st0" d="M-125,350.1c-8.1,6-13.9,15.1-6.2,24.3c7,8.3,21.9,10.3,29.7,2.5c3.4-3.4,5.8-7.6,5.2-12.5
			c-0.5-4.8-3.4-11.2-7.1-14.3c-6.5-5.4-20.9-5.1-25.4,2.7c-1,1.7,1.6,3.2,2.6,1.5c3.3-5.8,14.9-6,20-2.6c3.2,2.1,5.3,6.8,6.3,10.5
			c1.4,4.9-0.3,9-3.8,12.5c-6.3,6.3-18.3,4.7-24.5-1.4c-7.6-7.5-2.3-15.5,4.6-20.6C-122,351.6-123.5,349-125,350.1L-125,350.1z"/>
	</g>
</g>
<g id="XMLID_54_">
</g>
<g id="XMLID_115_">
</g>
<g id="XMLID_116_">
</g>
<g id="XMLID_117_">
</g>
<g id="XMLID_118_">
</g>
<g id="XMLID_119_">
</g>
<g id="XMLID_122_">
</g>
<g id="XMLID_124_">
</g>
<g id="XMLID_125_">
</g>
<g id="XMLID_126_">
</g>
<g id="XMLID_127_">
</g>
<g id="XMLID_128_">
</g>
<g id="XMLID_129_">
</g>
<g id="XMLID_130_">
</g>
<g id="XMLID_131_">
</g>
<g>
	<path class="st0" d="M-263.2,256.1c-1.6,1.1-3.9,1.7-7,1.7c-0.8,0-1.6-0.1-2.6-0.4c-1.2-0.3-2.1-0.6-2.7-1.1h-0.2
		c-0.4,0-0.8-0.2-1.1-0.5c-0.3-0.3-0.5-0.7-0.5-1.1c0-1.1,0-2.7,0.1-4.9c0.1-2.2,0.1-3.8,0.1-4.9c0-1.2,0-3-0.1-5.5
		s-0.1-4.2-0.1-5.5c0-0.4,0.2-0.9,0.7-1.3s0.9-0.7,1.3-0.7c0.3,0,1.1,0.3,2.5,1c1.6,0.8,2.5,1.2,2.8,1.3c3,1,5.5,2.6,7.6,4.7
		c2.4,2.5,3.7,5.2,3.7,8.1c0,1.8-0.4,3.5-1.3,5.1C-260.6,253.8-261.7,255.1-263.2,256.1z M-266.5,239.6c-1.1-0.7-3.5-1.9-7.4-3.6
		l0.1,4.5l0,4.5l-0.3,8.5c0.1,0,0.2,0.1,0.3,0.2c0.9,0.6,2.1,0.9,3.5,0.9c2.4,0,4.1-0.4,5.2-1.1c1-0.7,1.8-1.6,2.4-2.8
		c0.6-1.2,0.9-2.4,0.9-3.6C-261.7,244.2-263.3,241.7-266.5,239.6z"/>
	<path class="st0" d="M-247.4,256.9c-2.4,0-4.3-0.6-5.7-1.8c-1.6-1.3-2.4-3.1-2.4-5.5c0-2.7,0.7-5,2-6.8c1.4-2,3.3-3,5.7-3
		c1.7,0,3.1,0.3,4.2,0.9c1.3,0.7,2,1.8,2,3.3c0,1-0.6,2-1.8,2.8c-0.5,0.4-1.6,1-3.3,1.8l-6,2.8c0.6,0.9,1.3,1.5,2.2,2
		c0.9,0.4,1.9,0.7,3,0.7c0.7,0,1.6-0.1,2.5-0.4c1.2-0.3,2-0.8,2.4-1.4c0.4-0.6,0.7-0.8,1.1-0.8c0.4,0,0.7,0.1,1,0.4
		c0.3,0.3,0.4,0.6,0.4,1c0,1.2-0.9,2.2-2.8,3C-244.4,256.6-245.9,256.9-247.4,256.9z M-247.9,242.7c-1.3,0-2.3,0.5-3.2,1.5
		s-1.5,2.5-1.9,4.4l4.8-2.3c1.9-0.9,3.2-1.7,4-2.4C-245,243.1-246.2,242.7-247.9,242.7z"/>
	<path class="st0" d="M-225.2,257.3c-0.9,0-1.4-0.5-1.5-1.5l-0.4-3.4c-0.1-1.2-0.2-2.4-0.2-3.4c0-0.3,0-0.8,0.1-1.5
		c0-0.7,0.1-1.2,0.1-1.5c0-2.3-0.4-3.4-1.3-3.4c-1.2,0-2.3,0.7-3.3,2.1c-1,1.3-1.7,2.9-2.3,4.8c0,0.4-0.1,0.9-0.1,1.5
		c-0.1,0.5-0.1,1-0.1,1.5c0,0.3,0,0.8,0.1,1.4s0.1,1.1,0.1,1.4c0,0.5-0.1,0.8-0.4,1.1c-0.3,0.3-0.7,0.4-1.1,0.4
		c-0.5,0-0.8-0.1-1.1-0.4c-0.3-0.3-0.4-0.7-0.4-1.1c0-0.3,0-0.8-0.1-1.4c-0.1-0.6-0.1-1.1-0.1-1.4c0-1.1,0.1-2.6,0.2-4.5
		c0.2-1.9,0.2-3.4,0.2-4.5c0-0.3,0-0.8-0.1-1.5c0-0.7-0.1-1.2-0.1-1.5c0-0.4,0.1-0.8,0.4-1.1c0.3-0.3,0.7-0.4,1.1-0.4
		c1,0,1.5,0.7,1.6,2l0,1.8c1.8-2.3,3.5-3.5,5.4-3.5c1.7,0,2.8,0.7,3.5,2.2c0.4,1,0.7,2.4,0.7,4.3v1.6l0,1.5c0,0.9,0.1,2,0.3,3.4
		c0.2,1.4,0.3,2.5,0.3,3.3c0,0.5-0.1,0.8-0.4,1.1C-224.4,257.2-224.8,257.3-225.2,257.3z"/>
	<path class="st0" d="M-207.4,256.8c-0.6,0-1-0.3-1.3-0.9c-0.5-1.1-1.4-2.3-2.5-3.7l-2.8-3.8c-0.6,0.5-1.5,1.2-2.8,2
		c-0.1,1.6-0.2,3.2-0.2,4.7c0,0.5-0.1,0.8-0.4,1.1c-0.3,0.3-0.7,0.4-1.1,0.4c-1.1,0-1.6-0.7-1.6-2.1c0-0.9,0.1-2.2,0.2-3.9
		c0.1-1.7,0.2-3,0.2-3.9c0-1.6,0-3.4,0.1-5.4c0-2,0.1-3.8,0.1-5.4c0-0.5,0-1-0.1-1.7c0-0.6-0.1-1.2-0.1-1.7s0.1-0.8,0.4-1.1
		c0.3-0.3,0.7-0.4,1.1-0.4c0.4,0,0.8,0.1,1.1,0.4c0.3,0.3,0.4,0.7,0.4,1.1c0,0.5,0,1,0.1,1.7c0.1,0.7,0.1,1.2,0.1,1.7l-0.1,5
		c-0.1,1.8-0.1,3.6,0,5.4c1.4-1.1,2.8-2.3,4.1-3.6l3.4-3.5c0.3-0.4,0.7-0.5,1.1-0.5c0.4,0,0.8,0.2,1.1,0.5c0.3,0.3,0.5,0.7,0.5,1.1
		c0,0.4-0.2,0.7-0.5,1c-1.3,1.5-2.9,3.1-4.7,4.8l3.4,4.6c1.6,2.2,2.4,3.6,2.4,4.3c0,0.4-0.2,0.8-0.5,1.1S-207,256.8-207.4,256.8z"/>
	<path class="st0" d="M-196.5,256.7c-1,0-2.2-0.2-3.4-0.5l0,7.5c0,0.5-0.1,0.8-0.4,1.1c-0.3,0.3-0.7,0.4-1.1,0.4
		c-0.4,0-0.8-0.1-1.1-0.4c-0.3-0.3-0.4-0.7-0.4-1.1l0-6.3v-6.2c0-2.3-0.1-4.4-0.2-6.2l-0.2-3.2c0-0.7,0.1-1.4,0.4-1.9
		c0.3-0.6,0.8-0.9,1.4-0.9c0.4,0,0.7,0.1,1,0.4c0.3,0.3,0.4,0.6,0.4,1.1c0,0.1,0,0.3,0,0.5c-0.1,0.3-0.1,0.6-0.1,0.9
		c0.9-0.6,1.8-1.1,2.6-1.4c0.8-0.3,1.6-0.5,2.4-0.5c2.1,0,3.7,0.9,4.7,2.8c0.8,1.5,1.2,3.5,1.2,6c0,2.3-0.6,4.1-1.8,5.6
		C-192.7,256-194.4,256.7-196.5,256.7z M-195.5,243.2c-1,0-1.8,0.2-2.6,0.6c-0.6,0.3-1.3,0.9-2.1,1.7c0.1,2.4,0.2,4.8,0.2,7.5
		c1.1,0.4,2.3,0.7,3.4,0.7c1.3,0,2.3-0.5,3-1.5c0.6-0.8,0.9-1.9,0.9-3.3c0-1.9-0.2-3.3-0.7-4.3
		C-193.8,243.7-194.5,243.2-195.5,243.2z"/>
	<path class="st0" d="M-173.9,257.2c-0.2,0-0.6-0.2-1.1-0.7c-0.5-0.4-0.8-0.8-1-1.1c-1,0.5-1.9,1-2.6,1.2c-0.8,0.3-1.4,0.4-1.9,0.4
		c-2.4,0-4.2-0.7-5.3-2.1c-1.1-1.3-1.6-3.3-1.6-5.9c0-2.5,0.9-4.7,2.6-6.5c1.7-1.8,3.8-2.7,6.2-2.7c0.9,0,1.9,0.2,3,0.7
		c1.4,0.6,2.1,1.3,2.1,2.1c0,0.3-0.1,0.5-0.3,0.8c-0.1,0.4-0.2,1-0.2,2c-0.1,0.9-0.1,2.1-0.1,3.5c0,1.3,0.1,2.3,0.3,3.1
		c0.1,0.5,0.4,1.4,1,2.8c0.1,0.2,0.2,0.5,0.4,0.8l0.1,0.3c0,0.4-0.1,0.8-0.4,1C-173.1,257.1-173.5,257.2-173.9,257.2z M-177.1,246.4
		c0-0.4,0-0.9,0.1-1.5c0.1-0.5,0.1-1.1,0.3-1.7c-0.4-0.2-0.7-0.3-1-0.4c-0.3-0.1-0.5-0.1-0.7-0.1c-1.6,0-3,0.7-4.2,2
		c-1.2,1.3-1.8,2.8-1.8,4.6c0,1.7,0.3,3,0.9,3.8c0.6,0.9,1.5,1.3,2.7,1.3c1,0,1.8-0.2,2.5-0.5c0.4-0.2,0.9-0.6,1.6-1.2
		C-176.9,249.8-177.1,247.7-177.1,246.4z"/>
	<path class="st0" d="M-159.2,242.9c-0.2,0-0.5,0-0.8,0c-0.3,0-0.6,0-0.8,0c-0.2,0-0.9,0.1-2.1,0.2l0.3,9.2l0,0.7l0,0.8
		c0,2.3-0.5,3.4-1.6,3.4c-0.4,0-0.8-0.1-1.1-0.4c-0.3-0.3-0.5-0.6-0.5-1c0-0.4,0-1,0-1.8c0-0.8,0-1.4,0-1.8l-0.3-9.1
		c-0.8,0-1.9-0.1-3.5-0.3c-0.9-0.1-1.4-0.6-1.4-1.5c0-0.5,0.1-0.8,0.4-1.1c0.3-0.3,0.6-0.5,1.1-0.5l3.3,0.3c0-0.5,0-1.2-0.1-2.1
		s-0.1-1.5-0.1-1.9c0-0.4,0.2-0.8,0.5-1.1c0.3-0.3,0.7-0.4,1.1-0.4c0.9,0,1.5,0.8,1.6,2.3c0,0.4,0,0.8,0,1.4l0,0.9l0,1
		c1.3-0.2,2-0.3,2.2-0.3c1.1,0,1.8,0.1,2.1,0.2c0.6,0.2,1,0.7,1,1.5c0,0.5-0.1,0.8-0.4,1.1C-158.4,242.7-158.8,242.9-159.2,242.9z"
		/>
	<path class="st0" d="M-142.5,244.7c-0.1,1.3-0.6,2-1.6,2c-0.9,0-1.3-0.5-1.3-1.5c0-0.2,0-0.6,0-1.1l0-1.3c-1.6,0.2-3,0.7-4,1.4
		c-0.9,0.7-1.7,1.7-2.3,3.1l0,8.6c0,1.1-0.5,1.6-1.5,1.6c-0.9,0-1.4-0.5-1.4-1.6v-11c0-0.3,0-0.9,0-1.5c0-0.7,0-1.2,0-1.5
		c0-1.1,0.5-1.6,1.4-1.6c1,0,1.5,0.9,1.5,2.6c2-1.9,4.2-2.9,6.7-2.9c0.8,0,1.5,0.3,1.9,1c0.4,0.6,0.6,1.6,0.6,2.9
		C-142.4,244.1-142.4,244.5-142.5,244.7z"/>
	<path class="st0" d="M-133.4,257.1c-1.8,0-3.3-0.6-4.5-1.9c-1.4-1.4-2.1-3.4-2.2-5.8c-0.1-2.4,0.5-4.4,1.8-6.2
		c1.5-2.1,3.5-3.2,6.1-3.2c2.1,0,3.7,1,4.7,2.9c0.9,1.5,1.3,3.4,1.2,5.6c0,2.3-0.6,4.3-1.8,5.9
		C-129.4,256.2-131.2,257.1-133.4,257.1z M-132.4,243.2c-1.5,0-2.7,0.7-3.6,2.2c-0.7,1.2-1,2.5-1,4c0,1.5,0.4,2.7,1.2,3.5
		c0.7,0.7,1.5,1,2.4,1c1.1,0,2-0.4,2.8-1.2c0.9-0.9,1.4-2.1,1.4-3.5C-129,245.2-130.1,243.2-132.4,243.2z"/>
	<path class="st0" d="M-110.4,257.3c-0.9,0-1.4-0.5-1.5-1.5l-0.4-3.4c-0.1-1.2-0.2-2.4-0.2-3.4c0-0.3,0-0.8,0.1-1.5
		c0-0.7,0.1-1.2,0.1-1.5c0-2.3-0.4-3.4-1.3-3.4c-1.2,0-2.3,0.7-3.3,2.1c-1,1.3-1.7,2.9-2.3,4.8c0,0.4-0.1,0.9-0.1,1.5
		c-0.1,0.5-0.1,1-0.1,1.5c0,0.3,0,0.8,0.1,1.4s0.1,1.1,0.1,1.4c0,0.5-0.1,0.8-0.4,1.1c-0.3,0.3-0.7,0.4-1.1,0.4
		c-0.5,0-0.8-0.1-1.1-0.4c-0.3-0.3-0.4-0.7-0.4-1.1c0-0.3,0-0.8-0.1-1.4c-0.1-0.6-0.1-1.1-0.1-1.4c0-1.1,0.1-2.6,0.2-4.5
		c0.2-1.9,0.2-3.4,0.2-4.5c0-0.3,0-0.8-0.1-1.5c0-0.7-0.1-1.2-0.1-1.5c0-0.4,0.1-0.8,0.4-1.1c0.3-0.3,0.7-0.4,1.1-0.4
		c1,0,1.5,0.7,1.6,2l0,1.8c1.8-2.3,3.5-3.5,5.4-3.5c1.7,0,2.8,0.7,3.5,2.2c0.4,1,0.7,2.4,0.7,4.3v1.6l0,1.5c0,0.9,0.1,2,0.3,3.4
		c0.2,1.4,0.3,2.5,0.3,3.3c0,0.5-0.1,0.8-0.4,1.1C-109.6,257.2-110,257.3-110.4,257.3z"/>
	<path class="st0" d="M-98.4,256.9c-2.4,0-4.3-0.6-5.7-1.8c-1.6-1.3-2.4-3.1-2.4-5.5c0-2.7,0.7-5,2-6.8c1.4-2,3.3-3,5.7-3
		c1.7,0,3.1,0.3,4.2,0.9c1.3,0.7,2,1.8,2,3.3c0,1-0.6,2-1.8,2.8c-0.5,0.4-1.6,1-3.3,1.8l-6,2.8c0.6,0.9,1.3,1.5,2.2,2
		c0.9,0.4,1.9,0.7,3,0.7c0.7,0,1.6-0.1,2.5-0.4c1.2-0.3,2-0.8,2.4-1.4c0.4-0.6,0.7-0.8,1.1-0.8c0.4,0,0.7,0.1,1,0.4
		c0.3,0.3,0.4,0.6,0.4,1c0,1.2-0.9,2.2-2.8,3C-95.3,256.6-96.8,256.9-98.4,256.9z M-98.8,242.7c-1.3,0-2.3,0.5-3.2,1.5
		s-1.5,2.5-1.9,4.4l4.8-2.3c1.9-0.9,3.2-1.7,4-2.4C-95.9,243.1-97.2,242.7-98.8,242.7z"/>
	<path class="st0" d="M-76.1,257.3c-0.9,0-1.4-0.5-1.5-1.5l-0.4-3.4c-0.1-1.2-0.2-2.4-0.2-3.4c0-0.3,0-0.8,0.1-1.5
		c0-0.7,0.1-1.2,0.1-1.5c0-2.3-0.4-3.4-1.3-3.4c-1.2,0-2.3,0.7-3.3,2.1c-1,1.3-1.7,2.9-2.3,4.8c0,0.4-0.1,0.9-0.1,1.5
		c-0.1,0.5-0.1,1-0.1,1.5c0,0.3,0,0.8,0.1,1.4s0.1,1.1,0.1,1.4c0,0.5-0.1,0.8-0.4,1.1c-0.3,0.3-0.7,0.4-1.1,0.4
		c-0.5,0-0.8-0.1-1.1-0.4c-0.3-0.3-0.4-0.7-0.4-1.1c0-0.3,0-0.8-0.1-1.4c-0.1-0.6-0.1-1.1-0.1-1.4c0-1.1,0.1-2.6,0.2-4.5
		c0.2-1.9,0.2-3.4,0.2-4.5c0-0.3,0-0.8-0.1-1.5c0-0.7-0.1-1.2-0.1-1.5c0-0.4,0.1-0.8,0.4-1.1c0.3-0.3,0.7-0.4,1.1-0.4
		c1,0,1.5,0.7,1.6,2l0,1.8c1.8-2.3,3.5-3.5,5.4-3.5c1.7,0,2.8,0.7,3.5,2.2c0.4,1,0.7,2.4,0.7,4.3v1.6l0,1.5c0,0.9,0.1,2,0.3,3.4
		c0.2,1.4,0.3,2.5,0.3,3.3c0,0.5-0.1,0.8-0.4,1.1C-75.3,257.2-75.7,257.3-76.1,257.3z"/>
</g>
</svg>
