<?xml version="1.0" encoding="utf-8"?>
<!-- Generator: Adobe Illustrator 19.0.0, SVG Export Plug-In . SVG Version: 6.00 Build 0)  -->
<svg version="1.1" id="Layer_1" xmlns="http://www.w3.org/2000/svg" xmlns:xlink="http://www.w3.org/1999/xlink" x="0px" y="0px"
	 viewBox="0 0 300.7 273.8" enable-background="new 0 0 300.7 273.8" xml:space="preserve">
<g id="XMLID_123_">
	<g id="XMLID_89_">
		<path id="XMLID_93_" fill="#FFFFFF" d="M135.7,185.9c26.1,20.4,71.9,19.2,87-14c-0.6,0.2-1.1,0.5-1.7,0.7
			c10.8,3.5,24.3,0.9,34.8-2.5c10.8-3.5,19.9-9.8,26.1-19.5c10.2-16,5-42.6-12-52.1c-1.7-0.9-3.2,1.7-1.5,2.6
			c7.9,4.4,12.3,12.3,14.3,20.8c2.5,10.2,1.9,19.8-4.3,28.5c-6.1,8.7-14.8,14.2-24.9,17.2c-9.8,2.9-21.7,5.2-31.7,2
			c-0.6-0.2-1.4,0.1-1.7,0.7c-14.1,31.3-57.5,32.7-82.2,13.4C136.3,182.6,134.2,184.7,135.7,185.9L135.7,185.9z"/>
	</g>
</g>
<g id="XMLID_121_">
	<g id="XMLID_83_">
		<path id="XMLID_87_" fill="#FFFFFF" d="M47.5,148.8c-1.5,9.7,2.5,18.4,8.4,25.9c6.2,7.9,12.2,14,21.4,18
			c18.4,7.8,42.3,6.3,58.4-5.9c1.5-1.2,0-3.8-1.5-2.6c-7.6,5.7-16.5,9.2-26,9.9c-8.8,0.6-18.5,0.1-26.8-2.9c-3.7-1.4-7.9-3-11.1-5.3
			c-3.4-2.4-6.1-5.9-8.8-9c-6.6-7.6-12.7-16.6-11.1-27.2C50.7,147.7,47.8,146.9,47.5,148.8L47.5,148.8z"/>
	</g>
</g>
<g id="XMLID_120_">
	<g id="XMLID_77_">
		<path id="XMLID_81_" fill="#FFFFFF" d="M238.4,242.9c-6.2,4.2-10.5,11.2-3.7,17.4c5.3,4.9,15.2,6,20.8,1.3
			c5.9-5,5.3-13.8-0.9-18.7c-4.8-3.7-15.1-3.4-18.6,1.9c-1.1,1.6,1.5,3.1,2.6,1.5c2.2-3.5,10-3.4,13.3-1.6c1.8,1,3.2,3.3,3.9,5.2
			c1.7,4.4,0.7,7.2-2.8,9.7c-3.9,2.8-9.9,2.1-14-0.1c-2.9-1.6-5.1-4.6-4.7-8.1c0.3-2.7,3.7-4.7,5.6-6
			C241.5,244.4,240,241.8,238.4,242.9L238.4,242.9z"/>
	</g>
</g>
<g id="XMLID_114_">
	<g id="XMLID_71_">
		<path id="XMLID_75_" fill="#FFFFFF" d="M271.6,99.6c4.4-15.1,7.9-32.4-4-45c-11.6-12.3-29.4-14-45.3-15c0.5,0.5,1,1,1.5,1.5
			c-1.3-13.5-16.3-23.2-27.7-27.9c-13.6-5.6-28.9-6-42.8-1c-6.3,2.3-12.3,5.6-17.6,9.7c-2.4,1.9-5.3,6.2-8.4,5.5
			c-4.3-1-8.5-3.1-12.8-4.3c-15.6-4.1-31.2-2.8-44.4,6.9c-11.4,8.4-26.4,23.6-21,39.2c0.5-0.6,1-1.3,1.4-1.9
			C30.5,70,10,82.3,7.6,104.3c-2.7,24.3,22.8,38.9,43.4,43.3c1.9,0.4,2.7-2.5,0.8-2.9c-18.7-3.9-42.8-16.7-41.3-38.9
			c1.5-21,21.3-32.9,40.3-35.3c0.9-0.1,1.8-0.9,1.4-1.9c-5.6-16,13.3-33,25.8-39.8c16.4-8.9,34.9-4,51.1,2.6c0.5,0.2,1.1,0,1.5-0.4
			c11.8-12.8,28.8-20.2,46.3-19.2c8.8,0.5,17.5,3.2,25.2,7.6c7.8,4.5,17.9,12,18.8,21.7c0.1,0.8,0.6,1.4,1.5,1.5
			c14.7,0.9,31,2.2,42.1,13c12.2,11.8,8.5,28.7,4.3,43.2C268.2,100.7,271.1,101.5,271.6,99.6L271.6,99.6z"/>
	</g>
</g>
<g id="XMLID_110_">
	<g id="XMLID_65_">
		<path id="XMLID_69_" fill="#FFFFFF" d="M204,205.9c-8.1,6-13.9,15.1-6.2,24.3c7,8.3,21.9,10.3,29.7,2.5c3.4-3.4,5.8-7.6,5.2-12.5
			c-0.5-4.8-3.4-11.2-7.1-14.3c-6.5-5.4-20.9-5.1-25.4,2.7c-1,1.7,1.6,3.2,2.6,1.5c3.3-5.8,14.9-6,20-2.6c3.2,2.1,5.3,6.8,6.3,10.5
			c1.4,4.9-0.3,9-3.8,12.5c-6.3,6.3-18.3,4.7-24.5-1.4c-7.6-7.5-2.3-15.5,4.6-20.6C207,207.4,205.5,204.8,204,205.9L204,205.9z"/>
	</g>
</g>
<g id="XMLID_1_">
	<path id="XMLID_55_" fill="#FFFFFF" stroke="#FFFFFF" d="M79.3,110.3c-1.3,0.9-3.1,1.3-5.4,1.3c-0.6,0-1.3-0.1-2-0.3
		c-0.9-0.2-1.6-0.5-2.1-0.9h-0.1c-0.4,0-0.6-0.1-0.9-0.4c-0.2-0.2-0.4-0.5-0.4-0.9c0-0.9,0-2.1,0.1-3.8c0.1-1.7,0.1-3,0.1-3.8
		c0-1,0-2.4-0.1-4.3c0-1.9-0.1-3.3-0.1-4.3c0-0.3,0.2-0.7,0.5-1s0.7-0.5,1-0.5c0.2,0,0.8,0.3,2,0.8c1.3,0.6,2,0.9,2.2,1
		c2.3,0.8,4.3,2,5.9,3.6c1.9,1.9,2.9,4,2.9,6.4c0,1.4-0.3,2.7-1,4C81.3,108.5,80.4,109.5,79.3,110.3z M76.7,97.3
		c-0.8-0.5-2.7-1.5-5.7-2.8L71,98l0,3.5l-0.2,6.7c0.1,0,0.1,0.1,0.3,0.2c0.7,0.5,1.6,0.7,2.7,0.7c1.9,0,3.2-0.3,4.1-0.9
		c0.8-0.5,1.4-1.3,1.9-2.2c0.5-0.9,0.7-1.9,0.7-2.8C80.5,100.9,79.2,99,76.7,97.3z"/>
	<path id="XMLID_58_" fill="#FFFFFF" stroke="#FFFFFF" d="M91.6,110.9c-1.8,0-3.3-0.5-4.5-1.4c-1.2-1-1.9-2.4-1.9-4.3
		c0-2.1,0.5-3.9,1.5-5.3c1.1-1.6,2.6-2.3,4.5-2.3c1.4,0,2.5,0.2,3.3,0.7c1,0.6,1.6,1.4,1.6,2.6c0,0.8-0.5,1.6-1.4,2.2
		c-0.4,0.3-1.3,0.7-2.6,1.4l-4.7,2.2c0.5,0.7,1,1.2,1.7,1.5c0.7,0.3,1.5,0.5,2.4,0.5c0.6,0,1.2-0.1,2-0.3c1-0.3,1.6-0.6,1.9-1.1
		c0.3-0.4,0.6-0.7,0.9-0.7c0.3,0,0.5,0.1,0.8,0.3c0.2,0.2,0.3,0.5,0.3,0.8c0,0.9-0.7,1.7-2.2,2.3C94,110.6,92.8,110.9,91.6,110.9z
		 M91.3,99.8c-1,0-1.8,0.4-2.5,1.2c-0.7,0.8-1.2,1.9-1.5,3.5l3.7-1.8c1.5-0.7,2.5-1.3,3.1-1.9C93.5,100.1,92.5,99.8,91.3,99.8z"/>
	<path id="XMLID_76_" fill="#FFFFFF" stroke="#FFFFFF" d="M109,111.2c-0.7,0-1.1-0.4-1.2-1.1l-0.3-2.7c-0.1-1-0.2-1.8-0.2-2.7
		c0-0.2,0-0.6,0-1.2c0-0.5,0-0.9,0-1.2c0-1.8-0.3-2.6-1-2.6c-0.9,0-1.8,0.5-2.6,1.6c-0.7,1-1.3,2.2-1.8,3.7c0,0.3-0.1,0.7-0.1,1.2
		c0,0.4-0.1,0.8-0.1,1.2c0,0.2,0,0.6,0.1,1.1s0.1,0.9,0.1,1.1c0,0.4-0.1,0.7-0.3,0.9c-0.2,0.2-0.5,0.3-0.9,0.3
		c-0.4,0-0.6-0.1-0.9-0.3c-0.2-0.2-0.3-0.5-0.3-0.9c0-0.2,0-0.6-0.1-1.1c-0.1-0.5-0.1-0.9-0.1-1.1c0-0.8,0.1-2,0.2-3.5
		c0.1-1.5,0.2-2.6,0.2-3.5c0-0.3,0-0.6,0-1.2c0-0.5,0-0.9,0-1.2c0-0.3,0.1-0.6,0.3-0.9c0.2-0.2,0.5-0.3,0.9-0.3
		c0.7,0,1.2,0.5,1.2,1.6l0,1.4c1.4-1.8,2.8-2.7,4.2-2.7c1.3,0,2.2,0.6,2.7,1.7c0.3,0.8,0.5,1.9,0.6,3.4v1.2l0,1.1
		c0,0.7,0.1,1.5,0.3,2.6c0.2,1.1,0.3,1.9,0.3,2.6c0,0.4-0.1,0.6-0.3,0.9C109.6,111.1,109.3,111.2,109,111.2z"/>
	<path id="XMLID_88_" fill="#FFFFFF" stroke="#FFFFFF" d="M122.8,110.8c-0.4,0-0.8-0.2-1-0.7c-0.4-0.8-1.1-1.8-1.9-2.9l-2.2-2.9
		c-0.5,0.4-1.2,0.9-2.2,1.6c-0.1,1.3-0.1,2.5-0.1,3.7c0,0.4-0.1,0.7-0.3,0.9c-0.2,0.2-0.5,0.3-0.9,0.3c-0.8,0-1.2-0.6-1.2-1.7
		c0-0.7,0-1.7,0.1-3c0.1-1.3,0.1-2.4,0.1-3c0-1.2,0-2.7,0.1-4.2c0-1.6,0.1-3,0.1-4.2c0-0.4,0-0.8-0.1-1.3c0-0.5-0.1-0.9-0.1-1.3
		s0.1-0.7,0.3-0.9c0.2-0.2,0.5-0.3,0.9-0.3c0.3,0,0.6,0.1,0.9,0.3c0.2,0.2,0.3,0.5,0.3,0.9c0,0.4,0,0.8,0.1,1.3c0,0.5,0.1,1,0.1,1.3
		l-0.1,3.9c0,1.4-0.1,2.8,0,4.2c1.1-0.8,2.2-1.8,3.2-2.8l2.7-2.8c0.3-0.3,0.6-0.4,0.9-0.4c0.3,0,0.6,0.1,0.9,0.4
		c0.3,0.3,0.4,0.5,0.4,0.9c0,0.3-0.1,0.5-0.4,0.8c-1,1.2-2.2,2.4-3.7,3.8l2.7,3.6c1.2,1.7,1.9,2.8,1.9,3.3c0,0.3-0.1,0.6-0.4,0.8
		C123.5,110.7,123.2,110.8,122.8,110.8z"/>
	<path id="XMLID_95_" fill="#FFFFFF" stroke="#FFFFFF" d="M131.4,110.8c-0.8,0-1.7-0.1-2.7-0.4l0,5.8c0,0.4-0.1,0.7-0.3,0.9
		c-0.2,0.2-0.5,0.3-0.9,0.3c-0.4,0-0.6-0.1-0.9-0.3c-0.2-0.2-0.3-0.5-0.3-0.9l0-4.9v-4.9c0-1.8-0.1-3.4-0.2-4.9l-0.2-2.5
		c0-0.6,0.1-1.1,0.3-1.5c0.2-0.5,0.6-0.7,1.1-0.7c0.3,0,0.6,0.1,0.8,0.3c0.2,0.2,0.3,0.5,0.3,0.8c0,0.1,0,0.2,0,0.4
		c0,0.3-0.1,0.5-0.1,0.7c0.7-0.5,1.4-0.8,2-1.1c0.7-0.2,1.3-0.4,1.9-0.4c1.7,0,2.9,0.7,3.7,2.2c0.6,1.2,0.9,2.7,0.9,4.7
		c0,1.8-0.5,3.2-1.4,4.3C134.4,110.2,133,110.8,131.4,110.8z M132.2,100.2c-0.7,0-1.4,0.2-2,0.5c-0.4,0.2-1,0.7-1.6,1.3
		c0.1,1.8,0.2,3.8,0.2,5.8c0.9,0.3,1.8,0.5,2.7,0.5c1,0,1.8-0.4,2.3-1.1c0.5-0.7,0.7-1.5,0.7-2.6c0-1.5-0.2-2.6-0.5-3.3
		C133.5,100.6,132.9,100.2,132.2,100.2z"/>
	<path id="XMLID_98_" fill="#FFFFFF" stroke="#FFFFFF" d="M149.1,111.1c-0.2,0-0.4-0.2-0.8-0.5c-0.4-0.3-0.6-0.6-0.8-0.9
		c-0.8,0.4-1.5,0.7-2.1,1c-0.6,0.2-1.1,0.3-1.5,0.3c-1.9,0-3.3-0.5-4.2-1.6c-0.8-1-1.2-2.6-1.2-4.6c0-2,0.7-3.7,2-5.1
		c1.4-1.4,3-2.1,4.9-2.1c0.7,0,1.5,0.2,2.4,0.5c1.1,0.5,1.7,1,1.7,1.6c0,0.2-0.1,0.4-0.2,0.6c-0.1,0.3-0.1,0.8-0.2,1.5
		s-0.1,1.6-0.1,2.7c0,1,0.1,1.8,0.2,2.4c0.1,0.4,0.3,1.1,0.8,2.1c0.1,0.1,0.2,0.4,0.3,0.6l0.1,0.2c0,0.3-0.1,0.6-0.3,0.8
		C149.6,111,149.4,111.1,149.1,111.1z M146.5,102.7c0-0.3,0-0.7,0.1-1.1c0-0.4,0.1-0.8,0.2-1.3c-0.3-0.2-0.6-0.3-0.8-0.3
		c-0.2-0.1-0.4-0.1-0.5-0.1c-1.3,0-2.3,0.5-3.3,1.5c-0.9,1-1.4,2.2-1.4,3.6c0,1.3,0.2,2.3,0.7,3c0.5,0.7,1.2,1,2.1,1
		c0.8,0,1.4-0.1,2-0.4c0.3-0.2,0.7-0.5,1.2-0.9C146.7,105.4,146.5,103.7,146.5,102.7z"/>
	<path id="XMLID_101_" fill="#FFFFFF" stroke="#FFFFFF" d="M160.5,99.9c-0.2,0-0.4,0-0.6,0c-0.2,0-0.4,0-0.6,0
		c-0.2,0-0.7,0.1-1.7,0.2l0.2,7.2l0,0.5l0,0.6c0,1.8-0.4,2.7-1.3,2.7c-0.3,0-0.6-0.1-0.8-0.3c-0.2-0.2-0.4-0.5-0.4-0.8
		c0-0.3,0-0.8,0-1.4c0-0.6,0-1.1,0-1.4l-0.2-7.1c-0.6,0-1.5-0.1-2.7-0.2c-0.7-0.1-1.1-0.5-1.1-1.2c0-0.4,0.1-0.7,0.3-0.9
		c0.2-0.2,0.5-0.4,0.8-0.4l2.6,0.2c0-0.4,0-1-0.1-1.7c0-0.7-0.1-1.2-0.1-1.5c0-0.3,0.1-0.6,0.4-0.8c0.2-0.2,0.5-0.3,0.9-0.3
		c0.7,0,1.2,0.6,1.3,1.8c0,0.3,0,0.7,0,1.1l0,0.7l0,0.8c1-0.1,1.6-0.2,1.7-0.2c0.8,0,1.4,0,1.7,0.1c0.5,0.2,0.7,0.5,0.7,1.1
		c0,0.4-0.1,0.7-0.3,0.9C161.1,99.8,160.9,99.9,160.5,99.9z"/>
	<path id="XMLID_103_" fill="#FFFFFF" stroke="#FFFFFF" d="M173.6,101.3c-0.1,1-0.5,1.5-1.2,1.5c-0.7,0-1-0.4-1-1.2
		c0-0.2,0-0.4,0-0.9l0-1c-1.3,0.2-2.3,0.5-3.1,1.1c-0.7,0.5-1.3,1.3-1.8,2.4l0,6.7c0,0.8-0.4,1.2-1.2,1.2c-0.7,0-1.1-0.4-1.1-1.2
		v-8.6c0-0.3,0-0.7,0-1.2c0-0.5,0-0.9,0-1.2c0-0.8,0.4-1.2,1.1-1.2c0.8,0,1.2,0.7,1.2,2c1.6-1.5,3.3-2.3,5.2-2.3
		c0.7,0,1.2,0.2,1.5,0.7c0.3,0.5,0.5,1.2,0.5,2.2C173.6,100.9,173.6,101.2,173.6,101.3z"/>
	<path id="XMLID_105_" fill="#FFFFFF" stroke="#FFFFFF" d="M180.7,111.1c-1.4,0-2.5-0.5-3.5-1.5c-1.1-1.1-1.7-2.6-1.7-4.5
		c0-1.8,0.4-3.5,1.4-4.9c1.1-1.7,2.7-2.5,4.8-2.5c1.6,0,2.9,0.7,3.7,2.2c0.7,1.2,1,2.7,1,4.3c0,1.8-0.5,3.3-1.4,4.6
		C183.8,110.3,182.4,111.1,180.7,111.1z M181.4,100.2c-1.2,0-2.1,0.6-2.8,1.7c-0.5,0.9-0.8,2-0.8,3.1c0,1.2,0.3,2.1,1,2.8
		c0.5,0.5,1.2,0.8,1.9,0.8c0.8,0,1.6-0.3,2.2-0.9c0.7-0.7,1.1-1.6,1.1-2.8C184.1,101.7,183.3,100.2,181.4,100.2z"/>
	<path id="XMLID_108_" fill="#FFFFFF" stroke="#FFFFFF" d="M193.9,111.1c-1.4,0-2.5-0.5-3.5-1.5c-1.1-1.1-1.7-2.6-1.7-4.5
		c0-1.8,0.4-3.5,1.4-4.9c1.1-1.7,2.7-2.5,4.8-2.5c1.6,0,2.9,0.7,3.7,2.2c0.7,1.2,1,2.7,1,4.3c0,1.8-0.5,3.3-1.4,4.6
		C196.9,110.3,195.6,111.1,193.9,111.1z M194.6,100.2c-1.2,0-2.1,0.6-2.8,1.7c-0.5,0.9-0.8,2-0.8,3.1c0,1.2,0.3,2.1,1,2.8
		c0.5,0.5,1.2,0.8,1.9,0.8c0.8,0,1.6-0.3,2.2-0.9c0.7-0.7,1.1-1.6,1.1-2.8C197.3,101.7,196.4,100.2,194.6,100.2z"/>
	<path id="XMLID_112_" fill="#FFFFFF" stroke="#FFFFFF" d="M211.8,111.2c-0.7,0-1.1-0.4-1.2-1.1l-0.3-2.7c-0.1-1-0.2-1.8-0.2-2.7
		c0-0.2,0-0.6,0-1.2c0-0.5,0-0.9,0-1.2c0-1.8-0.3-2.6-1-2.6c-0.9,0-1.8,0.5-2.6,1.6c-0.7,1-1.3,2.2-1.8,3.7c0,0.3-0.1,0.7-0.1,1.2
		c0,0.4-0.1,0.8-0.1,1.2c0,0.2,0,0.6,0.1,1.1s0.1,0.9,0.1,1.1c0,0.4-0.1,0.7-0.3,0.9c-0.2,0.2-0.5,0.3-0.9,0.3
		c-0.4,0-0.6-0.1-0.9-0.3c-0.2-0.2-0.3-0.5-0.3-0.9c0-0.2,0-0.6-0.1-1.1s-0.1-0.9-0.1-1.1c0-0.8,0.1-2,0.2-3.5
		c0.1-1.5,0.2-2.6,0.2-3.5c0-0.3,0-0.6,0-1.2c0-0.5,0-0.9,0-1.2c0-0.3,0.1-0.6,0.3-0.9c0.2-0.2,0.5-0.3,0.9-0.3
		c0.7,0,1.2,0.5,1.2,1.6l0,1.4c1.4-1.8,2.8-2.7,4.2-2.7c1.3,0,2.2,0.6,2.7,1.7c0.4,0.8,0.5,1.9,0.6,3.4v1.2l0,1.1
		c0,0.7,0.1,1.5,0.3,2.6c0.2,1.1,0.3,1.9,0.3,2.6c0,0.4-0.1,0.6-0.3,0.9C212.4,111.1,212.1,111.2,211.8,111.2z"/>
</g>
<g id="XMLID_54_">
</g>
<g id="XMLID_115_">
</g>
<g id="XMLID_116_">
</g>
<g id="XMLID_117_">
</g>
<g id="XMLID_118_">
</g>
<g id="XMLID_119_">
</g>
<g id="XMLID_122_">
</g>
<g id="XMLID_124_">
</g>
<g id="XMLID_125_">
</g>
<g id="XMLID_126_">
</g>
<g id="XMLID_127_">
</g>
<g id="XMLID_128_">
</g>
<g id="XMLID_129_">
</g>
<g id="XMLID_130_">
</g>
<g id="XMLID_131_">
</g>
</svg>
