<?xml version="1.0" encoding="utf-8"?>
<!-- Generator: Adobe Illustrator 19.0.0, SVG Export Plug-In . SVG Version: 6.00 Build 0)  -->
<svg version="1.1" id="Layer_1" xmlns="http://www.w3.org/2000/svg" xmlns:xlink="http://www.w3.org/1999/xlink" x="0px" y="0px"
	 viewBox="349 178.3 221 374" style="enable-background:new 349 178.3 221 374;" xml:space="preserve">
<style type="text/css">
	.st0{fill:#FFFFFF;stroke:#FFFFFF;stroke-width:2;stroke-miterlimit:10;}
</style>
<path id="XMLID_10_" class="st0" d="M413.2,257.5c4.2,3,8.7,5.6,13.4,7.7c4.1,1.9,8.3,3.2,12.6,4.6c2.6,0.8,4.4,2.7,3.8,5.6
	c-0.5,2.3-2.3,4.2-3.6,6c-2.2,2.8-3.2,6.3-2.3,9.9c2,7.9,11.9,8.9,17.4,4.1c2.8-2.4,5.1-6.3,5.2-10c0-1.5-0.4-3-1.4-4.2
	c-0.8-0.8-1.8-1.3-2.4-2.3c-0.7-1.4-0.7-3.2-0.4-4.7c0.7-4,2.8-6.4,6.1-8.4c3.6-2.2,7-4.5,10.1-7.4c5.7-5.4,9.5-12.9,7.8-20.9
	c-0.7-3.3-2.4-6.3-5.2-8.4c-3.9-2.9-9.1-3.8-13.6-5.3c-5.2-1.8-10.4-4-15.3-6.5c-2.3-1.1-4.6-2.3-6.8-3.6c-1.9-1.1-3.9-2.9-6.1-3.5
	c-1.5-0.5-2.6,0.5-3.4,1.7c-1.4,2-2.6,4-4.2,5.8c-3.1,3.4-6.6,6.2-9.7,9.6c-2.8,3.2-5.1,6.9-5.7,11.2c-0.8,5.9,1,11.9,3.1,17.3
	c0.1,0.4,0.7,0.2,0.6-0.2c-1.5-4.9-3.2-9.9-3-15.1c0.2-4.6,2.2-8.6,5.1-12c2.4-2.8,5.1-5.2,7.7-7.7c2.5-2.5,4.6-5.1,6.6-8.1
	c0.3-0.5,0.8-1.4,1.4-1.6s1.8,0.2,2.3,0.5c1,0.5,2,1.2,3,1.8c2.2,1.3,4.5,2.5,6.7,3.7c4.2,2.1,8.5,4.1,12.8,5.8
	c4.3,1.7,8.6,2.9,12.9,4.4c4.4,1.5,7.9,4.2,9.4,8.7c2.8,8.3-1.3,16.5-7.3,22.1c-3,2.8-6.3,5-9.7,7.1c-2.3,1.4-4.3,3-5.5,5.5
	c-1.2,2.6-2,6.2-0.4,8.8c1.1,1.9,3.2,2.4,3.5,4.9c0.3,2.3-0.6,4.7-1.8,6.7c-2.3,4-6.3,6.9-11.1,6.6c-5-0.3-8.6-4.1-8.6-9.1
	c0-2.3,0.8-4.5,2.2-6.3c1.3-1.8,2.9-3.4,3.7-5.4c1.2-3,0-6-3-7.2c-1.7-0.7-3.6-1-5.3-1.6c-2.5-0.8-5-1.8-7.5-2.9
	c-4.9-2.2-9.6-4.9-14-8C413.2,256.9,413,257.3,413.2,257.5L413.2,257.5z"/>
<path id="XMLID_12_" class="st0" d="M436.2,207.6c-1.1-2.2-1-4.8,0.3-6.8c1.7-2.7,4.4-3.2,7.4-3.2c5.1-0.2,10.3,0,15.3,1
	c5.2,1,10,3.1,13.9,6.8c3.8,3.6,7.4,8.2,9.6,13c4,8.5,0.5,19.3,6.5,26.9c3.2,4,8.2,7,12.5,9.7c2.2,1.4,4.3,2.7,6.6,4
	c2.4,1.3,4.9,2.5,7.1,4.1c1.1,0.8,3.3,2.5,3.3,4c0.2,3.3-1.9,1-2.5,0.8c-0.8-0.3-1.8-1.1-2.5-1.6c-2.9-1.9-5.8-3.7-8.7-5.7
	c-5.6-3.7-11-7.6-16.5-11.3c-0.4-0.3-0.8,0.4-0.4,0.7c5.5,4.2,11.3,8,17.1,11.8c3,2,6,3.9,9,5.8c1.2,0.8,3.6,2.7,5,1.1
	c1.1-1.3-0.1-3.1-1-4.2c-1.6-2-4-3.4-6.2-4.6c-5.8-3.1-11.4-6.6-16.7-10.5c-2.7-2-5.4-4.1-7-7.2c-1.3-2.7-1.8-5.8-2.1-8.7
	c-0.5-5.3-0.5-10.7-2.9-15.6c-1.2-2.6-2.9-4.9-4.7-7.2c-1.8-2.4-3.8-4.8-6.1-6.8c-4.2-3.6-9.4-5.5-14.7-6.3c-3-0.5-6-0.7-9-0.8
	c-3.1-0.1-6.7-0.5-9.6,0.7c-3.9,1.6-5.4,6.6-3.5,10.3C435.9,208.2,436.3,207.9,436.2,207.6L436.2,207.6z"/>
<path id="XMLID_18_" class="st0" d="M489.6,252.1c9.1,11.1,17.7,22.6,24.8,35.2c0.5,0.9,2.6,3.6,2.1,4.6c-0.2,0.4-1.3,0.3-1.6,0.3
	c-0.5-0.1-1-0.8-1.4-1.1c-0.7-0.5-1.3-1.1-2-1.6c-2.4-2-4.6-4.1-6.7-6.4c-4.5-5-7.4-10.8-9.7-17.1c-2.3-6.5-4.2-13.2-8-19.1
	c-0.3-0.5-1.1,0-0.8,0.5c4.1,6.2,5.9,13.5,8.5,20.4c2.4,6.5,5.8,12.4,10.6,17.4c2.4,2.5,5,4.7,7.7,6.8c1.1,0.8,3.6,2.9,4,0.4
	c0.2-1.2-0.4-2.3-1-3.2c-1-1.9-2.1-3.7-3.2-5.6c-2.1-3.5-4.2-6.9-6.5-10.2c-5.1-7.5-10.8-14.6-16.6-21.6
	C489.8,251.4,489.4,251.8,489.6,252.1L489.6,252.1z"/>
<path id="XMLID_19_" class="st0" d="M487.6,253.4c2.6,6.5,5.2,13,7.7,19.5c1.3,3.2,2.6,6.5,3,10c0.3,2.4,0.5,7.5-2.7,8.3
	c-3.5,0.8-4.9-5.1-5.7-7.4c-1.1-3.1-2-6.3-2.7-9.5c-1.6-6.7-1.9-13.4-2.5-20.3c0-0.5-0.7-0.5-0.7,0c-0.3,6.1,0.8,12.5,2,18.4
	c0.7,3.1,1.5,6.2,2.4,9.3c0.8,2.5,1.5,5.3,2.9,7.6c1.8,3,5.4,3.9,7.2,0.3c2.3-4.7,0.1-10.8-1.7-15.2c-2.8-7.1-5.7-14.1-8.5-21.2
	C488,252.9,487.4,253,487.6,253.4L487.6,253.4z"/>
<path id="XMLID_20_" class="st0" d="M480.4,257.3c1.7-2,3.9-2.6,6.4-2.8c0.2,0,0.3-0.4,0.1-0.4c-2.6-0.5-5.3,0.9-7,2.8
	C479.6,257.1,480.1,257.6,480.4,257.3L480.4,257.3z"/>
<path id="XMLID_25_" class="st0" d="M493.3,245.1c2.4-1.1,4.9-1.6,7.5-1.7c1.6,0,2.6-0.4,3.8-1.5c1-0.8,1.9-1.7,2.8-2.5
	c0.6-0.5,1.5-1.1,1.8-1.9c0.3-0.7,0-1.3-0.7-1.7c-1.3-0.7-3.2-0.3-4.6-0.2c-1.9,0.2-3.8,0.6-5.7,1.2c-4,1.2-8,3-11.6,5.1
	c-0.4,0.2,0,0.7,0.3,0.5c6.1-2.6,11.8-6,18.6-6.2c0.8,0,3.2-0.4,2.4,1.7c-0.1,0.4-1.4,1.2-1.7,1.5c-1.7,1.5-3,3-5.3,3.3
	c-2.9,0.3-5.4,0.6-8.1,1.8C492.6,244.7,493,245.3,493.3,245.1L493.3,245.1z"/>
<path id="XMLID_27_" class="st0" d="M454.4,206.3c6.4,2.4,11.2,8,16.1,12.5c2.6,2.3,5.1,4.7,7.7,7c2.3,2.1,7,5,6.9,8.5
	c0,0.4,0.6,0.5,0.8,0.1c0.7-2.9-2.3-5.1-4.2-6.8c-3.2-2.9-6.4-5.8-9.6-8.7c-5.3-4.8-10.6-10.8-17.4-13.3
	C454.1,205.5,453.9,206.2,454.4,206.3L454.4,206.3z"/>
<path id="XMLID_33_" class="st0" d="M446.8,209.1c1.7,5.5,7.3,8,12.2,10c7,2.9,13.7,5.6,18.1,12.1c0.3,0.4,0.8,0.1,0.6-0.4
	c-2.8-5.4-8.8-8.4-14.2-10.7c-5.7-2.4-14-4.6-16.1-11.2C447.4,208.4,446.7,208.6,446.8,209.1L446.8,209.1z"/>
<path id="XMLID_40_" class="st0" d="M426.5,203.3c-8.3,0.8-14.6,7.3-19.5,13.5c-2.5,3.2-4.8,6.7-5.4,10.8c-0.6,4.4,1.2,8.4,3.2,12.2
	c0.2,0.3,0.7,0,0.5-0.3c-2.1-4-4-8.1-3.1-12.6c0.8-4,3.3-7.6,5.9-10.7c4.7-5.7,10.6-11.6,18.3-12.3
	C426.8,203.8,426.8,203.2,426.5,203.3L426.5,203.3z"/>
<path id="XMLID_47_" class="st0" d="M403.1,239.5c-5.5,1.2-10.9,2.9-16.1,4.9c-2.4,0.9-4.8,2-7.2,3.1c-1.3,0.6-2.5,1.2-3.8,1.9
	c-0.7,0.4-1.9,0.8-2.3,1.5c-0.5,0.9,0,2.1,0.8,2.6c1.7,1,4.1-0.2,5.8-0.7c5.7-1.7,11.4-3.5,17-5.2c-0.1-0.2-0.2-0.4-0.3-0.6
	c-6.4,5.3-12.8,10.6-19.1,16c-5.3,4.5-10.5,9.7-12.2,16.7c-0.6,2.5-1,5.7,0.2,8.1c1.2,2.4,3.8,1.7,5.7,0.5
	c5.5-3.4,8.7-9.4,12.1-14.8c4.9-7.9,10.5-15.4,16.1-22.8c0.2-0.3-0.3-0.6-0.5-0.3c-4.2,5.6-8.3,11.2-12.2,17
	c-3.5,5.2-6.4,11-10.5,15.8c-0.9,1-1.9,2-2.9,2.9c-0.7,0.6-1.4,1.1-2.1,1.5c-1.2,0.8-2.1,1.3-3.6,0.9c-1.4-0.4-1.7-1-2-2.3
	c-0.2-0.9-0.2-1.8-0.2-2.6c0-1.8,0.4-3.6,0.9-5.3c2.2-6.5,7.3-11.2,12.4-15.5c6.1-5.1,12.2-10.2,18.3-15.3c0.3-0.2,0-0.7-0.3-0.6
	c-4.3,1.3-8.5,2.6-12.8,3.9c-2.1,0.7-4.3,1.3-6.4,2c-1,0.3-1.2,0.3-2.3,0.1c-1.2,0.2-1.5-0.3-0.9-1.3c-0.1-0.8,0.2-1.2,0.9-1.4
	c0.8-0.6,1.9-1,2.8-1.5c7.8-3.9,16.1-6.9,24.7-8.8C403.6,240,403.5,239.5,403.1,239.5L403.1,239.5z"/>
<path id="XMLID_54_" class="st0" d="M395.1,256.8c-4.5,8.5-8.9,17-13.3,25.5c-3.6,7-8.1,14.8-9,22.7c-0.3,2.4,1.1,4.4,3.7,3.9
	c3.2-0.6,4.6-4.5,5.8-7c4-7.7,7.7-15.7,11-23.7c1.9-4.6,3.7-9.3,5.4-14c1.7-4.8,3.6-9.6,4.7-14.6c0-0.2-0.2-0.3-0.3-0.1
	c-1.4,3.7-2.4,7.5-3.7,11.2c-1.2,3.6-2.6,7.2-3.9,10.7c-2.9,7.4-6.1,14.7-9.5,21.9c-1.7,3.5-3.5,7-5.3,10.5c-0.8,1.5-1.6,3.2-3.1,4
	c-0.9,0.5-2.2,0.7-3.1,0.1c-1.6-1-1-3.1-0.7-4.5c1.7-7.7,5.3-14.7,8.9-21.6c4.2-8.2,8.5-16.4,12.8-24.7
	C395.7,256.8,395.2,256.5,395.1,256.8L395.1,256.8z"/>
<path id="XMLID_61_" class="st0" d="M397.9,259.3c-2.5,6.7-4.6,13.7-5.8,20.7c-0.4,2.6-0.4,5.1,1.3,7.3c0.8,1,2.7,3.7,4.2,3.1
	c1.7-0.6,2.9-3.8,3.5-5.4c1.1-2.9,1.5-5.9,1.9-8.9c0.9-7,1.1-14.5-0.2-21.4c0-0.2-0.5-0.2-0.4,0.1c0.5,5.7,0.9,11.2,0.5,16.9
	c-0.4,5.3-0.9,11.5-3.7,16.1c-0.3,0.4-0.7,1.4-1.2,1.6c-1.2,0.7-2.2-0.4-2.8-1.1c-1.1-1.1-2.1-2.4-2.4-3.9c-0.7-2.8,0.3-5.9,0.9-8.6
	c1.2-5.5,2.8-11,4.8-16.3C398.4,259.1,398,259,397.9,259.3L397.9,259.3z"/>
<path id="XMLID_68_" class="st0" d="M404.7,255.9c1.8,1.2,4.2,1.5,6.2,0.6c0.2-0.1,0.1-0.4-0.1-0.3c-2,0.5-4,0.4-5.8-0.7
	C404.7,255.3,404.4,255.7,404.7,255.9L404.7,255.9z"/>
<path id="XMLID_75_" class="st0" d="M405,240.2c-2.4,1.6-3.6,4.5-3.2,7.3c0.3,2.4,2.4,6,5.3,5.2c3.1-0.8,3-6,2.7-8.4
	c-0.4-3.4-2.2-6.6-5.6-7.7c-0.2-0.1-0.3,0.2-0.1,0.3c2.5,1.1,4.2,3.3,4.8,5.9c0.6,2.4,0.7,6-0.6,8.2c-1.4,2.2-3.9,0.8-5-0.8
	c-0.6-0.9-0.9-2.1-1-3.2c-0.1-2.5,0.9-4.9,3-6.3C405.6,240.5,405.3,240,405,240.2L405,240.2z"/>
<path id="XMLID_82_" class="st0" d="M420,234.7c2.9,0.5,5.8,0.4,8.7-0.5c0.3-0.1,0.3-0.6,0-0.6c-2.3-0.7-3.6-2-5.3-3.5
	c-0.2-0.2-0.4,0-0.2,0.3c1.1,2,3.6,3.2,5.6,3.9c0-0.2,0-0.4,0-0.6c-3,0.8-5.6,1-8.5,0.5C419.9,234,419.6,234.7,420,234.7L420,234.7z
	"/>
<path id="XMLID_89_" class="st0" d="M466.4,228.8c-1.2,0.3-2.4,0.5-3.5,0.8c-1,0.2-2.3,0.3-3.2,0.7c-0.5,0.3-1,0.6-0.9,1.3
	c0.3,1.2,2.2,1.3,3,1.5c2.3,0.5,4.6,1,6.9,1.5c0.5,0.1,0.7-0.7,0.2-0.8c-2.4-0.5-5.3-0.7-7.6-1.6c-0.7-0.3-1.7-0.7-0.8-1.4
	c0.4-0.3,1.3-0.3,1.8-0.4c1.4-0.3,2.8-0.6,4.2-1C467,229.3,466.8,228.7,466.4,228.8L466.4,228.8z"/>
<path id="XMLID_117_" class="st0" d="M444.1,237.9c-1.8,0.5-3.5,2.7-2.6,4.7c0.1,0.2,0.5,0.1,0.5-0.1c0.1-1.7,0.6-3.3,2.4-3.8
	C444.7,238.4,444.5,237.7,444.1,237.9L444.1,237.9z"/>
<path id="XMLID_35_" class="st0" d="M434.5,285.4c-8.1,0-16.6,0.7-23.8,4.7c-5.9,3.3-10.7,8.9-11.4,15.8c-0.7,6.7,2.8,13.5,9.5,15.5
	c6.6,2,12.3-2,15.2-7.9c4.2-8.5,3.9-19.2,3-28.4c0-0.5-0.7-0.5-0.7,0c0.2,7.6,0.9,15.1-1,22.6c-1.6,6.3-5.6,13.7-13.1,13.4
	c-7.3-0.2-12.2-6.8-12.1-13.8s4.8-12.9,10.6-16.4c7.2-4.2,15.8-4.9,23.9-5C434.9,286,434.9,285.4,434.5,285.4L434.5,285.4z"/>
<path id="XMLID_36_" class="st0" d="M463.2,285c2.7,1.6,5.8,2,8.9,2.6c3.4,0.7,6.3,2.1,8.7,4.5c2.3,2.3,4.1,5.1,5.5,8
	c1.8,3.7,3.2,7.4,2.1,11.5c-0.9,3.5-3,7.5-6.4,9.2c-4,2-7.6-0.1-9.1-4c-1.3-3.3-2.1-6.9-2.9-10.4c-1-3.8-1.8-7.6-2.2-11.5
	c-0.3-3,0.1-6.9-1.9-9.4c-1.8-2.2-5-2.2-6.8-4.4c-0.2-0.3-0.7,0.1-0.5,0.4c1.4,2.8,5.4,2.4,7,5.1c1,1.7,1,3.9,1.1,5.8
	c0.1,2.1,0.4,4.1,0.7,6.2c0.7,4.4,1.8,8.7,3,12.9c0.9,3.1,1.5,6.9,3.8,9.2c2,2,5.1,2.2,7.7,1.2c3-1.3,5-4.1,6.3-7
	c1.5-3.5,2-7,0.8-10.6c-1.1-3.2-2.8-6.5-4.8-9.3c-2-2.9-4.6-5.4-7.8-6.8c-4.1-1.8-8.8-1.4-12.8-3.7
	C463.1,284.1,462.7,284.8,463.2,285L463.2,285z"/>
<path id="XMLID_95_" class="st0" d="M422.6,318.1c-0.1,8.5-0.3,17-2.6,25.2c-0.1,0.3,0.1,0.5,0.4,0.5c9.6,1.2,18.4,6.3,28.1,6.5
	c5,0.1,9.9-1.3,14.8-2.3c5.3-1.1,10.6-2.3,16-3.4c0.2,0,0.4-0.4,0.2-0.6c-6.4-9.8-7.1-21.7-7.7-33c0-0.5-0.8-0.5-0.8,0
	c0.6,11.5,1.3,23.5,7.8,33.4c0.1-0.2,0.2-0.4,0.2-0.6c-5.2,1.1-10.4,2.2-15.6,3.3c-5.1,1.1-10.3,2.5-15.6,2.3
	c-9.5-0.4-18.1-5.3-27.5-6.4c0.1,0.2,0.2,0.3,0.4,0.5c2.4-8.3,2.6-16.9,2.7-25.4C423.3,317.6,422.6,317.6,422.6,318.1L422.6,318.1z"
	/>
<path id="XMLID_94_" class="st0" d="M382.9,379.5c7.1-9.1,14.2-18.4,19.3-28.8c2.5-5.1,4.5-10.4,6-15.8c1.5-5.5,3-11.7,2.9-17.4
	c0-0.4-0.7-0.5-0.7-0.1c-0.4,2.8-0.6,5.6-1,8.4c-0.5,2.8-1,5.5-1.8,8.2c-1.5,5.7-3.6,11.3-6.3,16.6c-5.1,10.2-12,19.4-19,28.3
	C381.9,379.3,382.5,379.9,382.9,379.5L382.9,379.5z"/>
<path id="XMLID_88_" class="st0" d="M409.5,323.3c1.7,11.6-4.6,22.6-10,32.4c-5.5,9.8-11.8,19.1-18.9,27.9c-0.4,0.5,0.3,1.2,0.7,0.7
	c7.4-9.2,14-19,19.7-29.3c5.3-9.6,11-20.5,9.3-31.8C410.1,322.6,409.4,322.9,409.5,323.3L409.5,323.3z"/>
<path id="XMLID_87_" class="st0" d="M380.5,378.9c-2.1-1.3-4.3-2-6.8-2c-1.4,0-3.8,0-4.6,1.4c-0.7,1.4,0.8,2.4,2,2.8
	c3,0.9,6.3,1.1,9.3,1.7c0-0.3,0.1-0.7,0.1-1c-6-0.4-12.6-0.6-17.4,3.5c-0.1,0.1-0.2,0.4-0.1,0.5c0.7,2.9,3.9,2.8,6.2,2
	c4.3-1.5,8.5-3.2,12.7-4.8c-0.2-0.3-0.3-0.6-0.5-0.9c-3.6,3-12.1,2.3-13.5,7.8c-0.5,1.8,0.5,3.9,2.7,3.5c1.4-0.3,2.6-1.6,3.6-2.4
	c1.9-1.5,3.7-3,5.6-4.5c0.5-0.4-0.2-1.2-0.6-0.8c-2.3,1.8-4.7,4.3-5.6,7.1c-0.6,1.8,0,4.1,2.3,3.8c2.5-0.3,4.8-2.6,6.1-4.6
	c1.4-2.4,1.9-5.1,1.3-7.8c-0.1-0.5-0.8-0.4-1,0c-1.1,2.7-2.2,5.8-0.8,8.6c1,1.9,3.1,3.1,5.3,2.2c2.2-0.9,2.2-3.1,1.7-5.1
	c-0.9-3.6-2.2-7.1-3.7-10.5c-0.3-0.6-1.1-0.1-0.9,0.5c0.9,2.1,1.7,4.2,2.4,6.3c0.6,1.7,2.2,5.2,1.2,6.9c-1.6,2.7-4.9,0.3-5.4-1.8
	c-0.7-2.3,0.4-4.9,1.2-6.9c-0.3,0-0.6,0-1,0c0.8,4-0.9,7.9-4.2,10.1c-1,0.6-1.8,1.2-2.9,0.6c-0.9-0.5-0.9-0.9-0.6-1.9
	c0.1-0.4,0.3-0.9,0.5-1.3c1.1-2.2,2.7-4,4.7-5.5c-0.2-0.3-0.4-0.5-0.6-0.8c-1.2,0.9-2.3,1.9-3.5,2.8c-1.2,1-2.5,2.3-3.8,3.1
	c-1.1,0.6-2.9,0.6-2.8-0.9c0-0.7,0.3-1.3,0.7-1.8c0.6-0.9,1.5-1.5,2.5-1.9c3.3-1.6,7.1-1.7,10.1-4.1c0.4-0.3,0-1.1-0.5-0.9
	c-3.1,1.2-6.2,2.3-9.3,3.5c-1.3,0.5-2.6,1.1-4,1.5c-0.8,0.2-1.8,0.5-2.6,0.3c-1.6-0.4-1.5-1.5-0.3-2.3c4.5-2.8,10.1-2.4,15.2-2.1
	c0.6,0,0.7-0.9,0.1-1c-1.7-0.3-3.5-0.6-5.2-0.9c-1.1-0.2-4.2-0.2-5-1.1c-2-2.1,4.5-1.8,4.9-1.8c1.6,0.3,3.1,0.9,4.5,1.7
	C380.6,380,381,379.2,380.5,378.9L380.5,378.9z"/>
<path id="XMLID_81_" class="st0" d="M484.8,320c2,4.6,4.2,9.5,8.2,12.9c2.1,1.8,4.7,2.8,7.2,4c2.3,1.1,4.4,2.4,6.5,3.9
	c7.8,5.7,14.3,13.7,23.5,17.1c2.6,1,5.8,0.9,8.3,2.3c1.6,0.9,2.3,4,4.4,3.5c0.5-0.1,0.4-0.9-0.1-0.9c-1.1,0-1.7-1.8-2.3-2.4
	c-0.6-0.7-1.4-1.2-2.2-1.5c-2.1-0.8-4.4-1-6.5-1.6c-4.6-1.4-8.6-4.2-12.3-7.1c-3.6-2.9-6.9-6-10.6-8.8c-1.8-1.4-3.7-2.7-5.7-3.9
	c-2.3-1.3-4.8-2.2-7.1-3.5c-5.6-3-8.3-8.7-10.8-14.3C485.1,319.4,484.7,319.7,484.8,320L484.8,320z"/>
<path id="XMLID_80_" class="st0" d="M546.1,363.7c1.5-1.4,5.5-4.4,6.4-0.8c0.7,2.5-2.7,2.6-4.7,2.5c0,0.3,0,0.7,0,1
	c2-0.2,2.8-0.2,4.2,0.1c0.6,0.1,1.5,0.2,1.9,0.5c0.5,0,0.8,0.3,0.7,0.9c0.4,0.7,0.2,1-0.6,0.8c-1,0.1-2.3-0.5-3.3-0.8
	c-1.4-0.5-2.6-1.1-3.9-1.8c-0.5-0.3-1,0.4-0.6,0.8c3.1,2.8,10.3,3.6,11,8.4c0.2,1.1-0.1,2.5-1,3.3c-1.5,1.3-3.2,0.1-4.3-1
	c-1.9-2.1-3.4-4.7-5-7c-0.3,0.2-0.6,0.4-0.9,0.7c3.2,2.9,3.7,7.8,1.1,11.3c0.3,0,0.6-0.1,0.9-0.1c-3.4-3.3,0.2-9.3-2.3-13.2
	c-0.3-0.5-1.1-0.2-1,0.4c0.6,3.6,0.9,10.7-4.7,10.1c0.2,0.1,0.3,0.3,0.5,0.4c-1.3-4.7-0.9-9.1-0.2-13.9c0.1-0.5-0.5-0.7-0.7-0.2
	c-1.8,4.4-1.4,9.8-0.1,14.3c0.1,0.2,0.3,0.4,0.5,0.4c2.3,0.3,4.2-1.1,5.3-3c1.4-2.6,0.9-5.7,0.4-8.4c-0.3,0.1-0.6,0.3-1,0.4
	c2.6,4.1-1.3,9.8,2.4,13.5c0.3,0.3,0.7,0.2,0.9-0.1c2.9-3.9,2.3-9.4-1.3-12.6c-0.4-0.4-1.2,0.1-0.9,0.7c1.3,1.8,2.6,3.7,3.9,5.5
	c0.8,1.1,1.6,2.2,2.7,2.9c2,1.3,4.4,0.7,5.4-1.5c3.1-6.7-7.7-8.7-11-11.8c-0.2,0.3-0.4,0.5-0.6,0.8c2,1.2,4.1,2.1,6.4,2.6
	c1.1,0.2,2.7,0.5,3.3-0.7c1.9-3.4-6.4-3.5-7.9-3.4c-0.6,0.1-0.6,0.9,0,1c2.2,0.2,6.8-0.7,5.5-4c-0.5-1.2-1.8-1.9-3.1-2
	c-2.1-0.1-3.7,1.4-5.1,2.8C545.1,363.4,545.7,364,546.1,363.7L546.1,363.7z"/>
<path id="XMLID_74_" class="st0" d="M420.2,344.6c-9.9,12.9-17.2,27.7-21.3,43.5c-0.1,0.3,0.2,0.6,0.5,0.5
	c9.8-2.6,20.9-5.9,26.4-15.2c0.3-0.4-0.4-0.8-0.7-0.4c-1.2,1.9-2.1,4-2.7,6.2c-0.5,1.7-1.1,3.9-0.7,5.7c0.8,4.1,6.9,2.2,9.7,1.9
	c2.6-0.3,5.2-0.4,7.8-0.8c1.4-0.2,2.5-0.7,3.1-2c0.7-1.6,0.7-3.7,0.9-5.5c0.3-2.8,0.7-5.6,1-8.4c0-0.4-0.6-0.5-0.7-0.1
	c-1.5,5.8-2.5,12.7-1.4,18.6c0.3,1.5,1.1,2.5,2.7,2.6c1.2,0.1,2.4-0.4,3.5-0.6c1.6-0.4,3.1-0.8,4.7-1.1c3.2-0.8,6.5-1.5,9.7-2.4
	c1.6-0.4,3.3-1.1,3.4-3c0.1-1.3-0.5-2.6-0.9-3.8c-0.4-1.4-0.9-2.8-1.3-4.2c-1-3.3-2.1-6.6-3.1-9.8c-0.1-0.5-0.8-0.3-0.7,0.2
	c1.3,4.8,0.8,10.2,2.7,14.8s6.4,6.7,11.2,6.6c2.7-0.1,5.4-0.9,7.8-2c1.5-0.6,3-1.3,4.4-2c0.8-0.4,1.8-0.9,2.1-1.9
	c0.4-1-0.2-2.1-0.5-3c-0.6-1.6-1.2-3.2-1.8-4.8c-1.2-3.2-2.4-6.4-3.6-9.7c-0.1-0.4-0.8-0.4-0.8,0.1c0.7,7.5,7.8,11.6,14,14.5
	c1.6,0.7,3.3,1.6,5.1,1.1c1.7-0.5,3.2-2,4.5-3.2c3-2.9,5.2-6.4,6.8-10.3c0.2-0.5-0.6-0.7-0.8-0.2c-1.4,3.5-3.4,6.6-5.9,9.3
	c-1.2,1.3-2.7,2.8-4.3,3.5c-2.2,0.9-4.4-0.5-6.4-1.5c-5.4-2.7-11.5-6.6-12.2-13.1c-0.3,0-0.5,0.1-0.8,0.1c1,2.5,1.9,5.1,2.9,7.6
	c0.9,2.4,2.3,5.1,2.8,7.6c0.3,1.2,0.2,2.4-1,3.1c-0.5,0.3-1.2,0.6-1.7,0.9c-1.2,0.6-2.4,1.2-3.7,1.7c-2.5,1-5.1,1.7-7.8,1.7
	c-5.3-0.1-9.1-3.3-10.4-8.4c-1-4.1-0.8-8.4-2-12.5c-0.2,0.1-0.5,0.1-0.7,0.2c1.5,4.7,2.9,9.4,4.4,14.1c0.4,1.4,0.8,2.3,0.5,3.7
	s-0.7,1.6-2,2c-0.5,0.2-1.1,0.3-1.6,0.4c-2.4,0.6-4.8,1.2-7.2,1.7c-2.3,0.6-4.6,1.1-6.9,1.7c-0.6,0.1-1.1,0.3-1.7,0.3
	c-1,0.1-2.3-0.4-2.8-1.3c-0.5-0.9-0.3-2.8-0.4-3.9c-0.2-5.1,0.3-10.1,1.6-15c-0.2,0-0.5-0.1-0.7-0.1c-0.4,3.7-0.8,7.3-1.3,11
	c-0.1,1-0.1,2.1-0.7,3c-0.8,1.3-2.2,1.2-3.5,1.3c-1.7,0.2-3.4,0.3-5.1,0.5s-3.4,0.3-5.1,0.5c-2.4,0.2-5.2,0.7-5.3-2.7
	c-0.1-3.5,1.6-7.4,3.4-10.3c-0.2-0.1-0.4-0.3-0.7-0.4c-5.5,9.1-16.4,12.2-26,14.8c0.2,0.2,0.3,0.3,0.5,0.5
	c4.1-15.7,11.2-30.5,21-43.4C420.9,344.6,420.4,344.3,420.2,344.6L420.2,344.6z"/>
<path id="XMLID_73_" class="st0" d="M478.9,342.1c4.5,5.8,9.6,11.1,15.4,15.6c2.7,2.1,5.6,4.1,8.6,5.9c3.1,1.9,6.4,3.8,9.9,5
	c0.3,0.1,0.6-0.4,0.2-0.6c-3.1-1.7-6.4-3.1-9.4-4.9c-3.2-1.9-6.3-4-9.2-6.3c-5.6-4.4-10.6-9.4-15-15.1
	C479.2,341.5,478.7,341.8,478.9,342.1L478.9,342.1z"/>
<path id="XMLID_67_" class="st0" d="M408.1,385.2c-4.6,16.4-11.7,32.1-21,46.4c-0.1,0.1,0,0.3,0.1,0.3c2.7,1.6,5.7,1.7,8.7,1.2
	c1.9-0.3,3.7-0.9,5.5-1.6c1.3-0.5,2.9-0.9,3.9-1.9s1.4-2.6,1.9-3.9c0.8-2.1,1.6-4.2,2.5-6.3c1.6-4.2,3.2-8.4,5-12.6
	c0.2-0.4-0.5-0.6-0.6-0.2c-2.2,6-4.6,11.9-6.9,17.9c-0.7,1.8-1.2,4-2.8,5.2c-1.1,0.9-2.9,1.3-4.2,1.7c-2.8,0.9-5.8,1.7-8.8,1.3
	c-1.1-0.1-3.7-0.4-3.2-1.8c0.5-1.3,1.7-2.6,2.4-3.8c1.5-2.5,3-5.1,4.4-7.7c2.7-4.9,5-10,7.2-15.2c2.6-6.2,4.7-12.6,6.5-19.1
	C408.5,385,408.2,384.9,408.1,385.2L408.1,385.2z"/>
<path id="XMLID_66_" class="st0" d="M410.8,408.2c-1.6,6.4-2.8,13-3.2,19.5c-0.1,1.9-0.1,4.1,1.8,5.2c1.8,1,4.1,0.4,5.9-0.1
	c3.3-0.9,6.6-1.6,10-1.6c2.1,0,4,0.2,5-2c1-2.4,0.8-5.6,1-8.2c0.3-3.6,0.8-7.2,0.9-10.8c0-0.4-0.6-0.5-0.7-0.1
	c-0.7,5.2-1,10.5-1.5,15.7c-0.1,1.5-0.1,3-1.4,3.9c-1.2,1-3,0.6-4.5,0.7c-2.4,0.1-4.8,0.5-7.1,1.1c-2.1,0.5-4.5,1.6-6.7,1.1
	c-3.3-0.8-2.3-5.3-2-7.8c0.6-5.5,1.5-11,2.8-16.5C411.4,408,410.9,407.9,410.8,408.2L410.8,408.2z"/>
<path id="XMLID_148_" class="st0" d="M457.5,425.8c-0.1-1.8-0.1-3.6-0.2-5.3c-0.1-3.5-0.1-7.2-0.5-10.7c0-0.4-0.6-0.4-0.6,0
	c-0.2,5.8,0.4,11.8,0.6,17.6c0.1,1.8-0.1,2.2-1.7,3.2c-1,0.6-2.1,1.2-3.2,1.7c-2.4,1.2-5,2.1-7.6,2.8c-2.5,0.7-5.1,1.1-7.7,1.3
	c-1.1,0.1-2.5,0.3-3.6,0.1c-2.9-0.4-2.4-2.3-2.3-4.3c0.2-5.8,0.5-11.7,0.7-17.5c0-0.4-0.5-0.4-0.6,0c-0.2,3.6-0.3,7.1-0.5,10.7
	c-0.1,1.8-0.2,3.6-0.3,5.3c-0.1,1.5-0.5,3.4-0.2,4.9c0,0.2,0.1,0.4,0.2,0.6c1,0.2,1.7,0.6,2.3,1.2c0.6,0,1.3,0,1.9,0
	c2.8,0,5.6-0.4,8.3-1c2.7-0.6,5.4-1.5,7.9-2.6c1.4-0.6,2.8-1.3,4.1-2.1c0.7-0.4,2.5-1.1,2.9-1.9C458.1,429,457.6,426.8,457.5,425.8z
	"/>
<path id="XMLID_91_" class="st0" d="M481.2,406c-0.2-0.4-0.8-0.1-0.7,0.3c1.5,3.6,2.6,7.8,2.5,11.8c0,0.2,0,0.5,0.1,0.7
	c0,0.6-0.1,1.2-0.4,1.8c-0.7,2.2-2.8,3.3-4.7,4.5l-6.1,4.2c-0.9,0.6-1.8,1.3-2.7,1.9c-0.2,0.2-0.5,0.3-0.8,0.5
	c-0.9-0.4-1.8-0.7-2.6-1.1c-0.3-0.3-0.5-1.2-0.6-1.7c-0.7-1.9-1.5-3.8-2.3-5.7c-1.9-4.4-4.1-8.6-6.5-12.7c-0.2-0.3-0.6,0-0.4,0.3
	c3,5.4,5.6,11,7.9,16.7c0.5,1.4,1,4.6,2.7,5.3c1.8,0.7,4.2-1.7,5.5-2.6c2.5-1.7,5.1-3.5,7.6-5.2c1.6-1.1,3.3-2,3.8-4.1
	C484.7,416.2,483.1,410.2,481.2,406z"/>
<path id="XMLID_115_" class="st0" d="M513.3,406c-0.2-1.1-1.8-2.6-2.4-3.5c-2-2.9-4.1-5.8-6.1-8.7c-0.3-0.4-0.9-0.2-0.8,0.3
	c0.7,2,1.6,4,2.8,5.7c0.3,0.3,0.8,0.1,0.6-0.3c-0.3-0.6-0.6-1.1-0.8-1.7c0.8,1.1,1.5,2.2,2.3,3.2c0.7,1,1.5,2.1,2.2,3.1
	c0.2,0.4,1.2,1.5,1.3,1.9c0.1,0.7-0.6,1.5-1,1.9c-2.4,2.9-5.1,5.7-7.9,8.2c-0.1,0.1-0.1,0.1-0.2,0.2c-0.1,0.1-0.2,0.2-0.3,0.2
	c-0.6,0.5-1.1,1-1.7,1.4c-1.9,1.6-3.9,3.1-6,4.5c-0.8,0.5-2.4,1-3.3,0.7c-0.5-0.2-1.3-1.2-1.7-1.6c-0.7-0.8-1.4-1.6-2.1-2.4
	c-3.3-3.7-6.1-7.9-6.9-12.8c-0.1-0.4-0.7-0.3-0.7,0.2c0.8,5.5,4.2,10.1,7.8,14.2c1,1.1,2.2,2.9,3.8,3.5c0.7-0.4,1.5-0.7,2.6-0.7
	c0.2,0,0.5,0,0.7,0c1.6-0.9,3.1-2.3,4.4-3.3c4.7-3.6,9.1-7.8,12.7-12.5C513.1,407.1,513.5,406.7,513.3,406z"/>
<path id="XMLID_31_" class="st0" d="M513.3,404c0.7,3.1,4,5.1,7.1,4.5c2.1-0.4,3.4-2.1,4.6-3.7c1.7-2.2,3.4-4.5,4.9-6.9
	c1-1.5,2.2-2.7,0.5-4.1c-2-1.6-4-3.1-6.1-4.6c-4.1-2.9-9.1-6-14.1-6.5c-0.4,0-0.5,0.6-0.1,0.7c3.8,1.2,7.4,2.4,10.8,4.6
	c1.7,1,3.3,2.1,4.9,3.3c1.4,1,5,2.8,4.4,4.8c-0.6,1.7-2.2,3.5-3.2,5c-1.2,1.8-2.5,3.7-4,5.3c-2.9,3-8.2,1.9-9.2-2.4
	C513.7,403.6,513.2,403.7,513.3,404L513.3,404z"/>
<path id="XMLID_29_" class="st0" d="M529.7,394.2c2.3,1.8,5.1,2.5,8,2.1c3.1-0.4,5.4-2.4,7.7-4.4c3-2.7,6-5.4,9.1-8.1
	c1.6-1.4,4.7-3.8,3-6.2c-0.3-0.4-0.9,0-0.6,0.4c1.7,2.6-3.7,6.1-5.3,7.6c-2.2,2-4.4,3.9-6.6,5.9c-2.3,2.1-4.6,4-7.8,4.3
	c-2.6,0.2-5.1-0.5-7.1-2.1C529.7,393.4,529.4,393.9,529.7,394.2L529.7,394.2z"/>
<path id="XMLID_28_" class="st0" d="M512.7,367.6c3.6,1.9,7.9,2,11.8,2.5c4.8,0.6,9.7,1.5,14.6,1.6c0.3,0,0.4-0.5,0.1-0.5
	c-4.1-0.9-8.6-1.1-12.8-1.5c-4.4-0.5-9.4-0.4-13.4-2.5C512.7,367,512.4,367.5,512.7,367.6L512.7,367.6z"/>
<path id="XMLID_228_" class="st0" d="M485.5,522.8c-0.5-7.9-2-15.8-4.4-23.4c0.4-1.2,0.8-2.5,1.1-3.7c1.7-6.7,1.9-13.8,2.4-20.7
	c0.5-7.2,0.8-14.5,0.4-21.8c-0.5-7.2-2.4-14.2-2.7-21.3c-0.1-3.6,0.1-7.2,0.2-10.8l0,0c-0.1,0.3-0.3,0.5-0.5,0.7
	c-0.1,0.1-0.1,0.2-0.2,0.3l-0.1,0.1c-0.1,3.1-0.2,6.3-0.1,9.4c0.3,7.8,2.4,15.4,2.8,23.2c0.4,8.1-0.1,16.1-0.8,24.2
	c-0.5,6.5-1.1,12.7-2.9,18.9c0-0.1-0.1-0.2-0.1-0.3c-0.2-0.5-0.9-0.2-0.8,0.3s0.3,0.9,0.4,1.4c-0.3,0.8-0.5,1.6-0.8,2.4
	c-2.7,7.1-5.9,14.1-8.3,21.3c-1.1,3.4-2.3,6.7-3.2,10.2c-0.8,2.9-1.2,6.1,0.2,9c1,2.1,2.9,3.8,5.2,4c2.9,0.3,5.9-1.5,8.2-3.1
	c2.8-1.9,3.8-4.5,4-7.8C485.8,531.1,485.7,526.9,485.5,522.8z M484.8,530.6c-0.1,3.2,0.2,7.6-2.1,10.2c-1.1,1.3-2.9,2.2-4.4,3
	c-1.9,1-4.2,1.9-6.4,1c-3.5-1.5-4.2-5.7-3.7-9.1c0.6-3.7,1.9-7.4,3.1-11c1.1-3.4,2.3-6.7,3.6-10c1.8-4.7,4-9.3,5.6-14
	c1.8,6.2,3.1,12.5,3.7,18.8C484.7,523.3,484.8,526.9,484.8,530.6z"/>
<path id="XMLID_15_" class="st0" d="M484.9,532.3c-1-1.2-2.1-2.3-3.6-2.9c-1.5-0.6-3.2-0.5-4.8-0.5c-0.9,0-8.3-1-7.4,1.1
	c0.1,0.3,0.6,0.3,0.6-0.1c0-0.6,7-0.2,7.7-0.2c1.2,0,2.5,0,3.7,0.4c1.4,0.5,2.4,1.5,3.3,2.6C484.7,533,485.2,532.6,484.9,532.3
	L484.9,532.3z"/>
<path id="XMLID_16_" class="st0" d="M474.4,522c0.7,2.3,2.6,4.6,5.1,5c2.2,0.4,4-2.8,4.5-4.7c0.1-0.2-0.3-0.3-0.4-0.1
	c-1.1,1.8-2.2,5-5.2,3.7c-1.7-0.8-2.9-2.5-3.4-4.2C474.8,521.4,474.3,521.6,474.4,522L474.4,522z"/>
<g id="XMLID_707_">
	<g id="XMLID_229_">
		<path id="XMLID_37_" class="st0" d="M479.2,525.3c0.5,0,0.5-0.8,0-0.8S478.7,525.3,479.2,525.3L479.2,525.3z"/>
	</g>
</g>
<path id="XMLID_169_" class="st0" d="M453.8,517.4c-1-8.4-3.1-16.6-5.5-24.7c-1.3-4.3-2.7-8.7-4.1-13c-0.2-0.8-0.3-1.7-0.5-2.5
	c-1-4.8-1.9-9.7-3-14.5c-0.1-0.4-0.7-0.2-0.7,0.2c0.5,2.9,1.1,5.9,1.7,8.8c-3-9.7-5.6-19.6-6.6-29.7c-0.1-1.4-0.2-2.8-0.3-4.2
	c-0.3,0-0.6,0-0.9-0.1c0.7,14.4,5,28.4,9.4,42c0.1,0.4,0.2,0.8,0.4,1.1c0.6,3.1,1.1,6.2,1.4,9.4c0.9,8.9-0.7,17.7-2.4,26.4
	c-0.8,4.2-1.7,8.3-2.2,12.5c-0.5,3.6-0.5,7.5,1,10.9c1.1,2.6,3.3,5.2,6.2,5.9c2.9,0.7,4.8-0.9,5.5-3.6
	C455.1,534.3,454.8,525.5,453.8,517.4z M452.5,540c-0.4,2.3-1,5.1-3.9,5c-2.2-0.1-4.2-1.9-5.3-3.7c-2.2-3.4-2.4-7.6-2-11.6
	c0.5-4.2,1.4-8.5,2.2-12.7c1.7-8.8,3.4-17.7,2.6-26.6c-0.1-1.2-0.3-2.3-0.4-3.5c4.1,13.3,7.9,26.8,7.9,40.7
	C453.5,531.8,453.2,536,452.5,540z"/>
<path id="XMLID_21_" class="st0" d="M444.5,525.2c2.1,5.3,10.1,3.4,11-1.8c0-0.3-0.3-0.4-0.5-0.2c-1.2,1.7-2,3.6-4.2,4.3
	c-2.3,0.7-4.9-0.2-5.8-2.5C445,524.6,444.4,524.8,444.5,525.2L444.5,525.2z"/>
<path id="XMLID_23_" class="st0" d="M445.3,524.1c-1.2-1.5-2.4-3.2-3.8-4.4c-0.3-0.2-0.7,0.1-0.5,0.4c1,1.7,2.5,3.1,3.8,4.6
	C445.1,525.1,445.6,524.5,445.3,524.1L445.3,524.1z"/>
<path id="XMLID_11_" class="st0" d="M443.6,534c2-1.5,4.1-2.9,6.3-4.2c-0.2-0.1-0.4-0.1-0.6-0.2c1.6,2.6,4.2,6,7.3,6.8
	c0.3,0.1,0.5-0.3,0.3-0.5c-1.1-1-2.5-1.7-3.7-2.8c-1.3-1.2-2.3-2.5-3.2-4c-0.1-0.2-0.4-0.3-0.6-0.2c-2.1,1.3-4.2,2.7-6.2,4.3
	C442.8,533.6,443.2,534.3,443.6,534L443.6,534z"/>
<g id="XMLID_5_">
	<g id="XMLID_43_">
		<path id="XMLID_163_" class="st0" d="M426.8,242.4c0.5,0,0.5-0.8,0-0.8C426.3,241.7,426.3,242.4,426.8,242.4L426.8,242.4z"/>
	</g>
</g>
<g id="XMLID_6_">
	<g id="XMLID_58_">
		<path id="XMLID_159_" class="st0" d="M429.7,242.1c0.5,0,0.5-0.8,0-0.8S429.2,242.1,429.7,242.1L429.7,242.1z"/>
	</g>
</g>
<g id="XMLID_7_">
	<g id="XMLID_70_">
		<path id="XMLID_156_" class="st0" d="M425.9,240.9c0.5,0,0.5-0.8,0-0.8C425.4,240.2,425.4,240.9,425.9,240.9L425.9,240.9z"/>
	</g>
</g>
<g id="XMLID_8_">
	<g id="XMLID_84_">
		<path id="XMLID_153_" class="st0" d="M428.5,239.7c0.5,0,0.5-0.8,0-0.8S428,239.7,428.5,239.7L428.5,239.7z"/>
	</g>
</g>
<g id="XMLID_13_">
	<g id="XMLID_96_">
		<path id="XMLID_147_" class="st0" d="M430.5,239.9c0.5,0,0.5-0.8,0-0.8S430,239.9,430.5,239.9L430.5,239.9z"/>
	</g>
</g>
<g id="XMLID_26_">
	<g id="XMLID_104_">
		<path id="XMLID_144_" class="st0" d="M430.9,240c0.3,0.1,0.5,0.2,0.8,0.3c0.5,0.1,0.7-0.6,0.2-0.7c-0.3-0.1-0.5-0.2-0.8-0.3
			C430.6,239.1,430.4,239.8,430.9,240L430.9,240z"/>
	</g>
</g>
<g id="XMLID_32_">
	<g id="XMLID_111_">
		<path id="XMLID_139_" class="st0" d="M433.2,240.8c0.5,0,0.5-0.8,0-0.8S432.7,240.8,433.2,240.8L433.2,240.8z"/>
	</g>
</g>
<g id="XMLID_38_">
	<g id="XMLID_119_">
		<path id="XMLID_136_" class="st0" d="M423.7,244.8c0.5,0,0.5-0.8,0-0.8S423.2,244.8,423.7,244.8L423.7,244.8z"/>
	</g>
</g>
<g id="XMLID_41_">
	<g id="XMLID_127_">
		<path id="XMLID_130_" class="st0" d="M423.4,242.1c0.5,0,0.5-0.8,0-0.8S422.9,242.1,423.4,242.1L423.4,242.1z"/>
	</g>
</g>
<g id="XMLID_55_">
	<g id="XMLID_135_">
		<path id="XMLID_126_" class="st0" d="M429.7,245.6c0.5,0,0.5-0.8,0-0.8S429.2,245.6,429.7,245.6L429.7,245.6z"/>
	</g>
</g>
<g id="XMLID_65_">
	<g id="XMLID_142_">
		<path id="XMLID_122_" class="st0" d="M432.9,243.9c0.5,0,0.5-0.8,0-0.8C432.4,243.2,432.4,243.9,432.9,243.9L432.9,243.9z"/>
	</g>
</g>
<g id="XMLID_79_">
	<g id="XMLID_151_">
		<path id="XMLID_118_" class="st0" d="M426.9,245.7c0.5,0,0.5-0.8,0-0.8S426.4,245.7,426.9,245.7L426.9,245.7z"/>
	</g>
</g>
<g id="XMLID_92_">
	<g id="XMLID_165_">
		<path id="XMLID_112_" class="st0" d="M429.8,244.4c0.5,0,0.5-0.8,0-0.8S429.3,244.4,429.8,244.4L429.8,244.4z"/>
	</g>
</g>
<g id="XMLID_101_">
	<g id="XMLID_173_">
		<path id="XMLID_107_" class="st0" d="M432.5,243.3c0.5,0,0.5-0.8,0-0.8S432,243.3,432.5,243.3L432.5,243.3z"/>
	</g>
</g>
<g id="XMLID_109_">
	<g id="XMLID_180_">
		<path id="XMLID_103_" class="st0" d="M428.3,241.4c0.5,0,0.5-0.8,0-0.8S427.8,241.4,428.3,241.4L428.3,241.4z"/>
	</g>
</g>
<g id="XMLID_116_">
	<g id="XMLID_189_">
		<path id="XMLID_99_" class="st0" d="M457.5,238.9c0.5,0,0.5-0.8,0-0.8S457,238.9,457.5,238.9L457.5,238.9z"/>
	</g>
</g>
<g id="XMLID_124_">
	<g id="XMLID_196_">
		<path id="XMLID_93_" class="st0" d="M461.3,239.5c0.5,0,0.5-0.8,0-0.8S460.8,239.5,461.3,239.5L461.3,239.5z"/>
	</g>
</g>
<g id="XMLID_132_">
	<g id="XMLID_203_">
		<path id="XMLID_85_" class="st0" d="M464.1,238.8c0.5,0,0.5-0.8,0-0.8S463.6,238.8,464.1,238.8L464.1,238.8z"/>
	</g>
</g>
<g id="XMLID_140_">
	<g id="XMLID_210_">
		<path id="XMLID_77_" class="st0" d="M459.4,237.2c0.5,0,0.5-0.8,0-0.8C458.9,236.5,458.9,237.2,459.4,237.2L459.4,237.2z"/>
	</g>
</g>
<g id="XMLID_149_">
	<g id="XMLID_217_">
		<path id="XMLID_71_" class="st0" d="M454,239.2c0.5,0,0.5-0.8,0-0.8C453.5,238.5,453.5,239.2,454,239.2L454,239.2z"/>
	</g>
</g>
<g id="XMLID_160_">
	<g id="XMLID_224_">
		<path id="XMLID_63_" class="st0" d="M456.3,242.1c0.5,0,0.5-0.8,0-0.8C455.8,241.4,455.8,242.1,456.3,242.1L456.3,242.1z"/>
	</g>
</g>
<g id="XMLID_171_">
	<g id="XMLID_231_">
		<path id="XMLID_59_" class="st0" d="M459.2,241.8c0.5,0,0.5-0.8,0-0.8S458.7,241.8,459.2,241.8L459.2,241.8z"/>
	</g>
</g>
<g id="XMLID_178_">
	<g id="XMLID_238_">
		<path id="XMLID_53_" class="st0" d="M461.1,241.7c0.5,0,0.5-0.8,0-0.8C460.6,241,460.6,241.7,461.1,241.7L461.1,241.7z"/>
	</g>
</g>
<g id="XMLID_187_">
	<g id="XMLID_245_">
		<path id="XMLID_50_" class="st0" d="M459.1,241.1c0.5,0,0.5-0.8,0-0.8S458.6,241.1,459.1,241.1L459.1,241.1z"/>
	</g>
</g>
<g id="XMLID_194_">
	<g id="XMLID_252_">
		<path id="XMLID_46_" class="st0" d="M456.4,240.6c0.5,0,0.5-0.8,0-0.8S455.9,240.6,456.4,240.6L456.4,240.6z"/>
	</g>
</g>
<g id="XMLID_201_">
	<g id="XMLID_259_">
		<path id="XMLID_42_" class="st0" d="M456.7,237.9c0.5,0,0.5-0.8,0-0.8C456.2,237.2,456.2,237.9,456.7,237.9L456.7,237.9z"/>
	</g>
</g>
<g id="XMLID_208_">
	<g id="XMLID_266_">
		<path id="XMLID_30_" class="st0" d="M458.7,239.9c0.5,0,0.5-0.8,0-0.8S458.2,239.9,458.7,239.9L458.7,239.9z"/>
	</g>
</g>
<g id="XMLID_215_">
	<g id="XMLID_134_">
		<path id="XMLID_17_" class="st0" d="M462.2,240.7c0.5,0,0.5-0.8,0-0.8S461.7,240.7,462.2,240.7L462.2,240.7z"/>
	</g>
</g>
<g id="XMLID_1_">
</g>
<g id="XMLID_2_">
</g>
<g id="XMLID_3_">
</g>
<g id="XMLID_4_">
</g>
<g id="XMLID_14_">
</g>
<g id="XMLID_22_">
</g>
<g id="XMLID_24_">
</g>
<g id="XMLID_34_">
</g>
<g id="XMLID_39_">
</g>
<g id="XMLID_44_">
</g>
<g id="XMLID_45_">
</g>
<g id="XMLID_48_">
</g>
<g id="XMLID_49_">
</g>
<g id="XMLID_51_">
</g>
<g id="XMLID_52_">
</g>
<g>
	<g>
		<path class="st0" d="M437.4,258.1c5.7,1,11.5,0.2,17.1-0.9c0.6-0.1,0.4-1.1-0.3-1c-5.4,1-11.1,1.9-16.6,0.9
			C437,257,436.7,258,437.4,258.1L437.4,258.1z"/>
	</g>
</g>
</svg>
